<?xml version="1.0" encoding="utf-8"?>
<!-- Generator: Adobe Illustrator 27.5.0, SVG Export Plug-In . SVG Version: 6.00 Build 0)  -->
<svg version="1.1" xmlns="http://www.w3.org/2000/svg" xmlns:xlink="http://www.w3.org/1999/xlink" x="0px" y="0px"
	 viewBox="0 0 500 500" style="enable-background:new 0 0 500 500;" xml:space="preserve">
<g id="BACKGROUND">
	<rect style="fill:#78BEF2;" width="500" height="500"/>
</g>
<g id="OBJECTS">
	<g>
		<path style="opacity:0.77;fill:#A5E0F9;" d="M95.66,355.88c31.78,30.88,70.93,49.35,112.93,56.44
			c39.22,6.61,80.37,11.31,118.24-0.61c95.92-30.19,153.55-154.4,115.19-244.8c-35.54-83.75-139.43-91.15-195.68-20.48
			c-11.75,14.76-23.64,31.59-42.08,36.82c-16.93,4.8-34.75-2.97-52.38-3.15C55.41,179.12,25.64,287.85,95.66,355.88z"/>
		<g>
			<g>
				<ellipse style="opacity:0.502;fill:#5D80C2;enable-background:new    ;" cx="350.22" cy="443.49" rx="89.5" ry="6.49"/>
				<g>
					<g>
						<path style="fill:#FAB792;" d="M293.36,253.76c0,0,4.86-9.36,5.83-13.47c0.32-1.37,0.51-2.89-0.2-4.11
							c-1.08-1.86-3.84-2.07-5.7-1.01c-1.86,1.06-3.03,3-4.12,4.85c-1.1-3.58-2.88-6.94-5.21-9.85c-0.74-0.92-1.59-1.83-2.72-2.16
							c-2.41-0.69-4.76,1.82-4.93,4.34c-0.16,2.52,1.14,4.87,2.4,7.05c-2.17-2.36-4.58-4.49-7.19-6.34c-0.85-0.6-1.78-1.2-2.81-1.23
							c-2.33-0.08-3.84,2.82-3.3,5.1c0.54,2.28,2.38,4,4.13,5.56c-1.99-2.05-4.79-4.17-7.42-3.09c-2.45,1.01-3.13,4.42-2.08,6.88
							c1.05,2.46,3.28,4.16,5.42,5.75c-1.34-0.85-2.74-1.72-4.31-1.9c-1.57-0.18-3.36,0.53-3.9,2.03c-0.76,2.12,1.21,4.16,2.98,5.55
							c4.08,3.2,8.16,6.4,12.24,9.6C279.57,262.08,293.36,253.76,293.36,253.76z"/>
						<path style="fill:#FACFC8;" d="M297.27,256.51c-0.58-1.33,0.25-2.8,0.86-4.12c0.6-1.32,0.81-3.22-0.46-3.91
							c-0.94-0.51-2.18,0.05-2.77,0.94c-0.6,0.89-0.72,2-0.82,3.07c-1.03-1.37-2.98-1.95-4.6-1.39c-1.62,0.56-2.77,2.24-2.73,3.95
							c-1.36-1.43-3.69-1.82-5.45-0.92c-1.76,0.9-2.79,3.02-2.43,4.96c-1.43-0.95-3.47-0.85-4.8,0.25
							c-1.32,1.09-1.81,3.08-1.15,4.66c-0.88-0.7-2.24-0.72-3.14-0.04c-0.9,0.68-1.25,2-0.81,3.03c-1.19-0.2-2.28,1.06-2.18,2.27
							c0.1,1.21,1.07,2.2,2.18,2.67c1.11,0.47,2.35,0.53,3.56,0.58C278.55,266.28,285.95,261.39,297.27,256.51z"/>
						<path style="fill:#FD726B;" d="M337.06,265.32c-2.27,17.24-3.09,30.45-3.91,43.66c-5.87,2.08-12.76,3.78-19.28,4.82
							c-8.27,1.33-15.95,1.6-20.2,0.33c-2.08-0.63-4.22-2.41-6.34-5c-7.06-8.59-14.04-25.88-19.15-37.87
							c8.32-8.92,17.44-14.2,29.58-19.48c2.35,7.79,7.12,21.4,9.72,22.11C311.98,275.11,327.2,268.18,337.06,265.32z"/>
						<path style="fill:#DB4D59;" d="M323.55,293.7c-3.25,6.87-6.48,13.53-9.69,20.1c-8.27,1.33-15.95,1.6-20.2,0.33
							c-2.08-0.63-4.22-2.41-6.34-5c5.29,0.76,10.92-0.18,15.95-2.2C310.8,303.92,317.23,298.78,323.55,293.7z"/>
					</g>
					<g>
						<path style="fill:#FAB792;" d="M420.8,354.92c-0.59,5.27-1.18,10.54-1.77,15.82c-0.18,1.6-0.3,3.42,0.67,4.6
							c1.18,1.46,3.44,1.06,4.71-0.29c1.27-1.35,1.82-3.33,2.31-5.22c2.67,2.13,5.34,4.26,8,6.39c0.84,0.67,1.78,1.38,2.81,1.31
							c1.76-0.12,2.79-2.55,2.4-4.48c-0.39-1.93-1.72-3.43-2.99-4.81c2.6,1.39,5.37,2.39,8.21,2.96c0.84,0.17,1.77,0.28,2.47-0.26
							c1.41-1.09,0.61-3.7-0.75-4.88c-1.36-1.17-3.16-1.8-4.1-3.41c1.82-0.51,3.68,0.36,5.51,0.79c1.83,0.44,4.13,0.2,5.01-1.66
							c0.76-1.6,0-3.68-1.26-4.8c-1.27-1.12-2.91-1.51-4.49-1.87c1.36,0.18,2.77,0.35,4.07-0.12c1.3-0.47,2.47-1.79,2.43-3.33
							c-0.05-1.76-1.55-2.99-2.95-3.76C441.89,342.83,429.86,345.39,420.8,354.92z"/>
						<path style="fill:#FACFC8;" d="M415.6,361.15c-0.41,2.03-0.69,4.1-0.76,6.17c0.78,1.14,2.37,1.57,3.58,0.98
							c1.21-0.59,1.92-2.14,1.61-3.51c1.15,1.19,3.07,1.46,4.47,0.62s2.17-2.71,1.78-4.36c1.3,1.05,3.21,1.19,4.64,0.34
							c1.43-0.85,2.3-2.64,2.12-4.36c1.32,0.8,3.09,0.67,4.3-0.3c1.21-0.98,1.78-2.75,1.39-4.3c1.35,0.74,3.11,0.52,4.26-0.53
							c1.15-1.05,1.6-2.86,1.09-4.37c0.97,0.56,2.3,0.43,3.08-0.4c0.78-0.83,0.86-2.32,0.1-3.16c-0.77-0.85-2.28-0.77-3.04,0.18
							C434.62,349.72,425.03,355.29,415.6,361.15z"/>
						<path style="fill:#FD726B;" d="M444.97,343.92c-8.38,10.25-17.69,16.39-29.89,20.57c-1.98-3.27-3.93-6.53-5.85-9.78
							c-3.36-5.67-6.62-11.3-9.77-16.92c-4.43-7.89-8.62-15.77-12.56-23.67c2.92-13.12,9.36-28.08,15.43-39.59
							C415.51,298.45,430.26,321.49,444.97,343.92z"/>
						<path style="fill:#DB4D59;" d="M409.23,354.71c-3.36-5.67-6.62-11.3-9.77-16.92c-0.48-7.67-0.36-15.5,0.3-23.66
							C403.66,327.44,406.82,341,409.23,354.71z"/>
					</g>
					<g>
						<g>
							<path style="fill:#FAB792;" d="M405.66,440.18c0.01,1.4-0.37,2.68-1.29,3.77c-2.88,3.43-41.24,3.73-44.39,1.05
								c-0.7-0.6-0.91-2.35-0.74-4.67c0.4-5.29,2.72-13.51,5.34-17.5c8.67-0.92,17.12-1.44,25.46-2.67
								c1.51,0.94,3.26,2.26,5.02,3.81c2.26,1.97,4.54,4.33,6.4,6.79C403.9,433.95,405.62,437.32,405.66,440.18z"/>
							<path style="fill:#852D4F;" d="M405.66,440.18c0.01,1.4-0.37,2.68-1.29,3.77c-2.88,3.43-41.24,3.73-44.39,1.05
								c-0.7-0.6-0.91-2.35-0.74-4.67c4.92,0.75,9.88,1.23,14.86,1.47c4.7,0.23,9.42,0.24,14.15,0.03
								C394.06,441.58,399.86,441.02,405.66,440.18z"/>
							<path style="fill:#852D4F;" d="M401.45,430.75c-2.18,0.28-4.29,0.99-6.16,2.09c-3.37,2.01-5.91,5.28-7.04,8.98
								c-0.28,0.87-0.47,1.77-0.58,2.68c-4.65-0.27-9.29-0.53-13.95-0.8c0.1-0.64,0.22-1.27,0.37-1.91
								c1.07-4.56,3.31-8.88,6.72-12.14c3.77-3.61,8.98-5.85,14.24-5.69C397.31,425.93,399.59,428.3,401.45,430.75z"/>
						</g>
						<g>
							<path style="fill:#FAB792;" d="M296.73,440.18c-0.01,1.4,0.37,2.68,1.29,3.77c2.88,3.43,41.24,3.73,44.39,1.05
								c0.7-0.6,0.91-2.35,0.74-4.67c-0.4-5.29-2.72-13.51-5.34-17.5c-8.67-0.92-17.12-1.44-25.46-2.67
								c-1.51,0.94-3.26,2.26-5.02,3.81c-2.26,1.97-4.54,4.33-6.4,6.79C298.48,433.95,296.76,437.32,296.73,440.18z"/>
							<path style="fill:#852D4F;" d="M296.73,440.18c-0.01,1.4,0.37,2.68,1.29,3.77c2.88,3.43,41.24,3.73,44.39,1.05
								c0.7-0.6,0.91-2.35,0.74-4.67c-4.92,0.75-9.88,1.23-14.86,1.47c-4.7,0.23-9.42,0.24-14.15,0.03
								C308.33,441.58,302.52,441.02,296.73,440.18z"/>
							<path style="fill:#852D4F;" d="M300.93,430.75c2.18,0.28,4.29,0.99,6.16,2.09c3.37,2.01,5.91,5.28,7.04,8.98
								c0.28,0.87,0.47,1.77,0.58,2.68c4.65-0.27,9.29-0.53,13.95-0.8c-0.1-0.64-0.22-1.27-0.37-1.91
								c-1.07-4.56-3.31-8.88-6.72-12.14c-3.77-3.61-8.98-5.85-14.24-5.69C305.08,425.93,302.79,428.3,300.93,430.75z"/>
						</g>
						<g>
							<path style="fill:#FFFFFF;" d="M399.46,418.83c-33.77,12.35-69.61,11.32-101.72-1.46c0.92-11.52,2.05-22.42,3.38-32.96
								c0.05-0.44,0.1-0.89,0.17-1.33c1.93-15.08,4.29-29.4,7.12-43.59c34.55,9.29,61.3,21.97,86.53,37.64
								c0.31,3.37,0.64,6.68,0.98,9.92c0.63,6.21,1.28,12.21,1.95,18.11C398.4,409.74,398.93,414.29,399.46,418.83z"/>
							<path style="fill:#D3E4F0;" d="M397.87,405.15c-16.13,0.42-32.31,0.35-48.23-2.15c-17.26-2.7-34.34-8.4-48.52-18.59
								c-0.61-0.43-1.21-0.87-1.8-1.33c0.65,0,1.32,0,1.97-0.01c31.78-0.04,63.21,1.92,94.63,3.97
								C396.55,393.25,397.2,399.25,397.87,405.15z"/>
						</g>
					</g>
					<g>
						<path style="fill:#FD726B;" d="M403.33,395.8c-38.52,5.89-77.32,4.62-105.59-12.29c0.35-2.75,0.77-5.58,1.24-8.48
							c0.44-2.69,0.92-5.46,1.46-8.27c0.35-1.87,0.72-3.75,1.12-5.66c0.69-3.34,1.44-6.74,2.25-10.18
							c7.52-32.21,19.87-68.08,32.75-92.56c20.75,6.99,41.92,12.74,65.96,18.6c-4.06,24.59-4.11,56.68-2.16,86.38
							c0.17,2.64,0.36,5.27,0.56,7.86c0.18,2.35,0.37,4.69,0.58,6.99c0.24,2.77,0.51,5.5,0.78,8.19
							C402.62,389.6,402.97,392.74,403.33,395.8z"/>
						<path style="fill:#DB4D59;" d="M419.43,294.6c-12.19,12.66-28.52,21.26-45.88,24.18c-2.55-8.26-5.1-16.52-7.46-25.01
							c-5.9,7.35-13.57,13.27-21.96,17.11c-9.46-7.73-15.72-19.27-16.41-31.09C354.95,277,382.78,280.23,419.43,294.6z"/>
						<g>
							<path style="fill:#FF9F87;" d="M402.29,386.38c-34.71,4.73-70.45,0.68-103.3-11.35c0.44-2.69,0.92-5.46,1.46-8.27
								c32.46,10.58,67.06,14.5,101.06,11.44C401.75,380.96,402.01,383.69,402.29,386.38z"/>
							<path style="fill:#FF9F87;" d="M400.92,371.2c-33.36,3.15-67.32-0.31-99.35-10.1c0.69-3.34,1.44-6.74,2.25-10.18
								c26.58,7.99,65.91,14.45,96.55,12.42C400.52,365.98,400.72,368.6,400.92,371.2z"/>
						</g>
					</g>
					<g>
						<g>
							<path style="fill:#FFFFFF;" d="M375.7,313.33c-3.92-8.64-6.4-16.84-8.34-26.35c-7.4,6.47-11.66,13.05-19.83,17.03
								c-18.76-10.09-30.56-28.32-34.53-48.22c8.97,0.46,19.08-0.34,32.09-2.48c16.53,7.72,35.34,10.5,57.31,10.03
								c5.12,11.66,13.53,21.86,23.86,28.67C412.36,303.14,395.49,310.53,375.7,313.33z"/>
							<path style="fill:#FFFFFF;" d="M347.3,262.23c-17.4-6.8-27.2-25.11-27.34-43.79c-0.17-24.51,13.64-49.26,36.28-58.68
								c22.64-9.42,51.71-4.35,68.29,13.7s18.84,55.49,5.89,76.3c-9.98,16.02-28.26,26.99-52.05,21.06"/>
						</g>
						<g>
							<path style="fill:#D3E4F0;" d="M332.94,245.63c5.08,15.72,19.11,28.2,35.31,31.42c16.21,3.22,33.94-2.96,44.64-15.55
								C385.96,262.29,358.87,257.17,332.94,245.63z"/>
							<path style="fill:#D3E4F0;" d="M412.61,259.44c11.32-9.26,19.42-22.39,23.14-37.35c-1.66,16.48-10.49,32.12-23.74,42.05
								C412.07,262.46,412.14,260.76,412.61,259.44z"/>
							<path style="fill:#D3E4F0;" d="M333.24,245.63c-6.32-17.38-5.8-37.14,2.31-55.04c-6.42,8.4-10.03,18.92-10.1,29.49
								C325.37,230.66,328.83,241.22,333.24,245.63z"/>
						</g>
						<g>
							<g>
								<path style="fill:#FAB792;" d="M423.81,245.12c-2.51,9.02-9.03,17.2-16.63,22.69c-7.59,5.49-20.78,9.07-40.12,4.85
									c-15.78-3.45-25.29-9.63-30.06-15.7c-6.27-7.94-9.43-16.45-8.95-28.58c3.93-13.26,11.23-25.3,21-35.14c0.01,0,0.01,0,0.01,0
									c9.14-9.2,20.42-16.45,33.11-20.95c4.77-1.69,10.15-0.61,13.79,2.91c8.51,8.24,15.24,18.86,19.8,30.38
									C420.72,218.05,424.47,232.39,423.81,245.12z"/>
								<path style="fill:#FD726B;" d="M415.77,205.56c-7.63-10.29-19.27-17.64-31.93-19.7c-11.97-1.95-24.56,0.87-34.77,7.37
									c9.14-9.2,20.42-16.45,33.11-20.95c4.77-1.69,10.15-0.61,13.79,2.91C404.48,183.42,411.21,194.05,415.77,205.56z"/>
							</g>
							<g>
								<g>
									<path style="fill:#221830;" d="M348.51,206.44c0.93-1.58,2.46-2.77,4.16-3.53c1.71-0.76,3.61-1.1,5.49-1.02
										s3.74,0.59,5.38,1.49c1.63,0.91,3.05,2.23,3.83,3.89c-1.66-0.75-3.18-1.32-4.72-1.71s-3.07-0.61-4.62-0.68
										c-1.55-0.07-3.1,0.01-4.66,0.27C351.79,205.4,350.22,205.83,348.51,206.44z"/>
								</g>
								<g>
									<path style="fill:#221830;" d="M412.38,218.66c-1.42-1.13-2.77-2.05-4.17-2.79c-1.4-0.75-2.84-1.33-4.32-1.76
										c-1.48-0.43-3.01-0.72-4.59-0.85c-1.59-0.14-3.21-0.09-5.02,0.08c1.28-1.32,3.05-2.1,4.88-2.44
										c1.84-0.33,3.77-0.2,5.57,0.33c1.8,0.53,3.49,1.47,4.86,2.74C410.95,215.24,412.02,216.86,412.38,218.66z"/>
								</g>
								<path style="fill:#262A3D;" d="M358.055,230.586c0.427-2.246,1.931-3.847,3.358-3.576c1.427,0.271,2.237,2.313,1.81,4.559
									c-0.427,2.246-1.931,3.847-3.357,3.576C358.438,234.873,357.628,232.832,358.055,230.586z"/>
								<path style="fill:#262A3D;" d="M389.041,237.72c0.684-2.182,2.362-3.598,3.748-3.163c1.386,0.435,1.955,2.556,1.27,4.737
									c-0.684,2.182-2.362,3.598-3.748,3.163C388.925,242.022,388.356,239.901,389.041,237.72z"/>
								<g style="opacity:0.4784;">
									<path style="fill:#EB6E6C;" d="M339.319,234.464c1.181-3.919,6.249-5.856,11.32-4.328s8.225,5.943,7.045,9.862
										c-1.181,3.919-6.249,5.856-11.32,4.328C341.293,242.798,338.139,238.383,339.319,234.464z"/>
									<path style="fill:#EB6E6C;" d="M390.533,248.14c0.27-4.084,4.772-7.111,10.057-6.762c5.285,0.349,9.35,3.942,9.081,8.026
										c-0.27,4.083-4.772,7.111-10.057,6.762C394.328,255.816,390.263,252.223,390.533,248.14z"/>
								</g>
								<path style="fill:#BF4D49;" d="M375.8,239.09c-0.41,1.79-0.82,3.58-1.23,5.36c1.16-0.14,2.19-1.05,2.49-2.18
									C377.36,241.14,376.91,239.85,375.8,239.09z"/>
								<path style="fill:#822339;" d="M370.9,262.14c-9.43-1.82-8.48-13.47-5.01-17.96c5.62,3.25,11.89,4.79,18.37,4.28
									C385.67,257.35,380.4,263.97,370.9,262.14z"/>
							</g>
						</g>
						<g>
							<path style="fill:none;stroke:#ADC1DE;stroke-width:3;stroke-linecap:round;stroke-miterlimit:10;" d="M406.36,270.99
								c-9.81,8.41-23.17,12.22-36.04,11.16"/>
							<path style="fill:none;stroke:#ADC1DE;stroke-width:3;stroke-linecap:round;stroke-miterlimit:10;" d="M332.35,255.07
								c7.78,11.75,19.24,22.39,34.45,26.73"/>
							<g>
								<g>
									<path style="fill:#ADC1DE;" d="M364.497,281.642c0.255-1.665,1.33-2.882,2.4-2.717c1.07,0.164,1.73,1.647,1.475,3.312
										c-0.255,1.665-1.33,2.882-2.4,2.717C364.902,284.79,364.242,283.307,364.497,281.642z"/>
									<path style="fill:#ADC1DE;" d="M367.678,282.129c0.255-1.665,1.33-2.882,2.4-2.717c1.07,0.164,1.73,1.647,1.475,3.312
										c-0.255,1.665-1.33,2.882-2.4,2.717C368.083,285.276,367.423,283.794,367.678,282.129z"/>
								</g>
								<path style="fill:none;stroke:#ADC1DE;stroke-width:3;stroke-linecap:round;stroke-miterlimit:10;" d="M371.14,282.49
									c3.55,5.52,5.02,12.33,4.08,18.83"/>
								<path style="fill:none;stroke:#ADC1DE;stroke-width:3;stroke-linecap:round;stroke-miterlimit:10;" d="M366.06,281.31
									c-4.14,4.89-6.16,11.53-5.43,17.91"/>
							</g>
						</g>
					</g>
				</g>
			</g>
			<g>
				<g>
					<ellipse style="fill:#FFFFFF;" cx="344.749" cy="78.037" rx="61.745" ry="45.48"/>
					<polygon style="fill:#FFFFFF;" points="363.05,118.289 363.137,148.686 345.402,117.463 					"/>
				</g>
				
					<text transform="matrix(1 0 0 1 312.1757 71.4355)" style="fill:#403C7D; font-family:'FredokaOne-Regular'; font-size:20.1523px;">Salam</text>
				
					<text transform="matrix(1 0 0 1 305.5546 97.6337)" style="fill:#403C7D; font-family:'FredokaOne-Regular'; font-size:20.1523px;">Alaikum</text>
			</g>
		</g>
		<g>
			<g>
				<ellipse style="opacity:0.502;fill:#5D80C2;enable-background:new    ;" cx="140.76" cy="443.49" rx="89.5" ry="6.49"/>
				<g>
					<g>
						<g>
							<path style="fill:#FAB792;" d="M86.73,440.18c-0.01,1.4,0.37,2.68,1.29,3.77c2.88,3.43,41.24,3.73,44.39,1.05
								c0.7-0.6,0.91-2.35,0.74-4.67c-0.4-5.29-3.23-16.73-5.85-20.72c-8.67-0.92-16.61,1.78-24.95,0.55
								c-1.51,0.94-3.26,2.26-5.02,3.81c-2.26,1.97-4.54,4.33-6.4,6.79C88.49,433.95,86.77,437.32,86.73,440.18z"/>
							<path style="fill:#221830;" d="M86.73,440.18c-0.01,1.4,0.37,2.68,1.29,3.77c2.88,3.43,41.24,3.73,44.39,1.05
								c0.7-0.6,0.91-2.35,0.74-4.67c-4.92,0.75-9.88,1.23-14.86,1.47c-4.7,0.23-9.42,0.24-14.15,0.03
								C98.33,441.58,92.52,441.02,86.73,440.18z"/>
							<path style="fill:#221830;" d="M90.93,430.75c2.18,0.28,4.29,0.99,6.16,2.09c3.37,2.01,5.91,5.28,7.04,8.98
								c0.28,0.87,0.47,1.77,0.58,2.68c4.65-0.27,9.29-0.53,13.95-0.8c-0.1-0.64-0.22-1.27-0.37-1.91
								c-1.07-4.56-3.31-8.88-6.72-12.14c-3.77-3.61-8.98-5.85-14.24-5.69C95.08,425.93,92.8,428.3,90.93,430.75z"/>
						</g>
						<g>
							<path style="fill:#FAB792;" d="M191.9,440.18c0.01,1.4-0.37,2.68-1.29,3.77c-2.88,3.43-41.24,3.73-44.39,1.05
								c-0.7-0.6-0.91-2.35-0.74-4.67c0.4-5.29,3.23-16.73,5.85-20.72c8.67-0.92,16.61,1.78,24.95,0.55
								c1.51,0.94,3.26,2.26,5.02,3.81c2.26,1.97,4.54,4.33,6.4,6.79C190.14,433.95,191.86,437.32,191.9,440.18z"/>
							<path style="fill:#221830;" d="M191.9,440.18c0.01,1.4-0.37,2.68-1.29,3.77c-2.88,3.43-41.24,3.73-44.39,1.05
								c-0.7-0.6-0.91-2.35-0.74-4.67c4.92,0.75,9.88,1.23,14.86,1.47c4.7,0.23,9.42,0.24,14.15,0.03
								C180.3,441.58,186.11,441.02,191.9,440.18z"/>
							<path style="fill:#221830;" d="M187.7,430.75c-2.18,0.28-4.29,0.99-6.16,2.09c-3.37,2.01-5.91,5.28-7.04,8.98
								c-0.28,0.87-0.47,1.77-0.58,2.68c-4.65-0.27-9.29-0.53-13.95-0.8c0.1-0.64,0.22-1.27,0.37-1.91
								c1.07-4.56,3.31-8.88,6.72-12.14c3.77-3.61,8.98-5.85,14.24-5.69C183.55,425.93,185.83,428.3,187.7,430.75z"/>
						</g>
						<g>
							<path style="fill:#8883EA;" d="M137.18,356.8c-0.03,0.98-0.06,1.94-0.07,2.92c-0.14,5.03-0.28,10.06-0.4,15.08v0.01
								c-0.19,7.15-0.39,14.29-0.57,21.43c-0.23,8.34-0.45,16.67-0.67,25c-13.06,1.47-26,0.94-38.75-0.97
								c0.27-10.23,0.71-20.45,1.26-30.66c0.76-14.2,1.73-28.38,2.72-42.56c0.09-1.43,0.19-2.84,0.29-4.27
								c6.61,3.75,13.53,6.84,20.65,9.37C126.73,353.98,131.93,355.51,137.18,356.8z"/>
							<path style="fill:#8883EA;" d="M183.16,417.7c-11.88,3.42-24.43,4.5-38.64,2.49c-0.64-7.94-1.64-15.86-3.03-23.71
								c-1.28-7.29-2.87-14.52-4.79-21.67v-0.01c-1.22-4.61-2.59-9.17-4.08-13.69c1.5-0.46,2.99-0.92,4.48-1.39
								c4.31-1.33,8.58-2.7,12.76-4.2c7.38-2.62,14.49-5.62,21-9.51c0.55,3.15,1.1,6.29,1.65,9.43c2.33,13.39,4.66,26.77,6.92,40.07
								C180.7,402.94,181.94,410.34,183.16,417.7z"/>
							<path style="fill:#6E61B8;" d="M179.44,395.52c-12.64,0.84-25.36,1.41-37.95,0.97c-1.28-7.29-2.87-14.52-4.79-21.67
								c-0.19,7.15-0.39,14.29-0.57,21.43c-12.99-0.76-25.8-2.7-38.16-6.63c0.76-14.2,1.73-28.38,2.72-42.56
								c6.88,2.06,13.88,3.76,20.95,5.1c5.09,1.82,10.29,3.36,15.53,4.65c-0.03,0.98-0.06,1.94-0.07,2.92
								c4.31-1.33,8.58-2.7,12.76-4.2c7.55,0.4,15.11,0.37,22.65-0.07C174.85,368.84,177.17,382.22,179.44,395.52z"/>
						</g>
					</g>
					<g>
						<path style="fill:#FAB792;" d="M209.46,251.47c0,0-3.16-10.06-3.4-14.28c-0.08-1.4,0-2.94,0.91-4.01
							c1.39-1.65,4.14-1.37,5.79,0c1.65,1.37,2.46,3.48,3.21,5.49c1.7-3.33,4.04-6.33,6.84-8.8c0.88-0.78,1.88-1.53,3.05-1.65
							c2.49-0.26,4.37,2.62,4.1,5.13c-0.28,2.51-1.97,4.6-3.59,6.53c2.54-1.95,5.29-3.62,8.18-4.99c0.94-0.45,1.96-0.87,2.99-0.73
							c2.31,0.32,3.29,3.44,2.36,5.6c-0.93,2.16-3.04,3.53-5.03,4.76c2.32-1.67,5.44-3.28,7.85-1.76c2.24,1.42,2.31,4.9,0.85,7.13
							c-1.46,2.24-3.95,3.53-6.33,4.73c1.47-0.6,3-1.21,4.58-1.12c1.58,0.09,3.22,1.11,3.49,2.68c0.38,2.22-1.92,3.88-3.9,4.94
							c-4.57,2.44-9.15,4.89-13.72,7.33C221.6,262.06,209.46,251.47,209.46,251.47z"/>
						<path style="fill:#FAB792;" d="M82.23,355.93c0,0,5.04,9.27,6.09,13.36c0.35,1.36,0.56,2.88-0.12,4.11
							c-1.05,1.88-3.8,2.15-5.68,1.12c-1.88-1.03-3.09-2.94-4.21-4.77c-1.03,3.6-2.74,6.99-5.02,9.95
							c-0.72,0.93-1.55,1.86-2.67,2.21c-2.4,0.74-4.8-1.73-5.01-4.24c-0.21-2.51,1.04-4.89,2.26-7.1c-2.12,2.4-4.49,4.57-7.06,6.47
							c-0.84,0.62-1.75,1.23-2.79,1.29c-2.33,0.13-3.89-2.74-3.39-5.04c0.5-2.3,2.3-4.05,4.02-5.64c-1.95,2.09-4.71,4.26-7.36,3.24
							c-2.47-0.96-3.21-4.36-2.21-6.83c1-2.48,3.2-4.23,5.3-5.86c-1.32,0.87-2.71,1.77-4.28,1.98c-1.57,0.21-3.37-0.47-3.94-1.95
							c-0.8-2.1,1.13-4.18,2.87-5.6c4.02-3.28,8.03-6.56,12.05-9.84C68.28,347.89,82.23,355.93,82.23,355.93z"/>
						<g>
							<g>
								<path style="fill:#FFFFFF;" d="M183.57,381.33c-14.21,4.64-29.16,6.97-44.1,6.88c-2.84-4.87-4.64-8.18-6.39-11.79
									c-0.83,5.55-1.79,8.66-2.33,12.3c-15.7,2-28.54-0.15-38.74-5.92c0.37-10.81,0.77-21.54,1.19-32.19
									c1.12-28.47,2.37-56.52,3.32-84.78c2.45-2.64,5.02-4.92,7.64-7.03c2.72-2.17,5.5-4.15,8.29-6.13
									c9.95,0.38,19.85-0.74,29.31-3.42c3.29,1.24,6.64,2.25,9.91,3.22c4.91,1.46,9.67,2.88,13.9,5
									c2.2,10.59,4.99,29.26,7.73,49.03C177.7,338.15,181.98,372.62,183.57,381.33z"/>
								<path style="fill:#D8DDF2;" d="M132.39,268c0.56,9.64,1.12,19.28,1.69,28.71c-2.59,0.26-5.17,0.52-7.77,0.99
									c-0.78-9.18-1.56-18.37-2.32-28.29c-7.84,0.2-15.51-4.11-19.82-10.61c2.72-2.17,5.5-4.15,8.29-6.13
									c9.95,0.38,19.85-0.74,29.31-3.42c3.29,1.24,6.64,2.25,9.91,3.22C147.94,259.8,140.87,265.53,132.39,268z"/>
								<path style="fill:#F7F5FC;" d="M183.57,381.33c-14.21,4.64-29.16,6.97-44.1,6.88c-2.84-4.87-4.64-8.18-6.39-11.79
									c-0.83,5.55-1.79,8.66-2.33,12.3c-15.7,2-28.54-0.15-38.74-5.92c0.37-10.81,0.77-21.54,1.19-32.19
									c18.06,0.17,36.19-4.9,51.39-14.69c11.62-7.48,21.45-17.67,28.71-29.43C177.7,338.15,181.98,372.62,183.57,381.33z"/>
							</g>
							<path style="fill:#EB947A;" d="M109.56,248.66c0.4,2.49,0.8,4.97,0.94,8.24c3.18,3.18,7.7,5.48,13.32,6.3
								c3.14,0.46,6.35-0.08,9.21-1.44c4.52-2.14,8.7-5.16,12.03-8.3c-1.42-4.04-1.85-6.49-2.21-11.55
								C132.2,245.51,121.02,247.54,109.56,248.66z"/>
							<g>
								<g>
									<path style="fill:#FFFFFF;" d="M232.68,266.72c-1.18,3.11-2.42,6.49-3.74,9.99c-5.63,14.93-12.61,31.9-21.22,38.13
										c-1.45,1.05-2.94,1.8-4.48,2.18c-5.57,1.38-17.93-2.04-29.33-10.88c-10.05-7.79-19.34-19.81-22.54-36.49
										c2.12-5.11,3.5-10.23,6.54-15.25c2.63,1,5.6,2.01,9.09,3.51c3.13,1.34,6.07,3.09,8.75,5.2
										c5.85,4.63,11.74,9.25,17.86,13.91c3.31-6.79,6.72-13.18,10.36-20.33c1.31-2.56,2.65-5.22,4.02-8.04
										C216.04,257.07,222.16,260.48,232.68,266.72z"/>
									<path style="fill:#D8DDF2;" d="M232.68,266.72c-1.18,3.11-2.42,6.49-3.74,9.99c-9.47-5.06-17.98-11.89-24.97-20.02
										c1.31-2.56,2.65-5.22,4.02-8.04C216.04,257.07,222.16,260.48,232.68,266.72z"/>
								</g>
								<path style="fill:#F7F5FC;" d="M207.72,314.84c-1.45,1.05-2.94,1.8-4.48,2.18c-5.57,1.38-17.93-2.04-29.33-10.88
									c-2.92-9.81-5.3-19.83-7-30.19c5.05,11.11,11.15,22.12,20.54,29.91C193.19,310.62,200.39,313.96,207.72,314.84z"/>
							</g>
							<g>
								<path style="fill:#FFFFFF;" d="M111.83,287.3c-3.71,24.76-9.92,41.61-18.96,61.44c-0.74,1.62-1.49,3.26-2.27,4.92
									c-1.24,2.66-2.53,5.39-3.87,8.21c-1.5,0.19-3.11,0.13-4.76-0.14c-8.61-1.36-18.78-8.29-24.85-15.75
									c1.35-2.84,2.63-5.57,3.85-8.18c10.95-23.46,17.11-38.6,24.77-58.75c2.06-5.41,5.55-10.15,10.13-13.69
									c2.05-1.58,4.04-3.1,5.43-4.14C104.6,267.18,107.94,284.32,111.83,287.3z"/>
								<path style="fill:#F7F5FC;" d="M92.87,348.74c-0.74,1.62-1.49,3.26-2.27,4.92c-1.24,2.66-2.53,5.39-3.87,8.21
									c-1.5,0.19-3.11,0.13-4.76-0.14c0.79-3.35,1.55-6.71,2.29-10.08c5.1-23.24,9.07-46.74,11.89-70.37
									C96.6,304.8,95.39,326.97,92.87,348.74z"/>
								<path style="fill:#D8DDF2;" d="M90.6,353.66c-1.24,2.66-2.53,5.39-3.87,8.21c-1.5,0.19-3.11,0.13-4.76-0.14
									c-8.61-1.36-18.78-8.29-24.85-15.75c1.35-2.84,2.63-5.57,3.85-8.18c6.82,6,14.76,10.73,23.29,13.85
									C86.34,352.42,88.46,353.09,90.6,353.66z"/>
							</g>
						</g>
					</g>
					<g>
						<g>
							<path style="fill:#EB947A;" d="M72.77,209.14c-2.52-0.88-5.44,0.26-7.16,2.28s-2.4,4.76-2.48,7.41
								c-0.13,4.55,1.49,9.25,4.84,12.36s8.48,4.39,12.72,2.68C78.07,226.24,75.46,218.6,72.77,209.14z"/>
							<path style="fill:#EB947A;" d="M165.89,203.19c0.16-2.48,3.16-4.04,5.58-3.42c2.42,0.62,4.16,2.76,5.19,5.02
								c2.2,4.81,1.83,10.71-0.95,15.21c-2.78,4.5-7.9,7.48-13.2,7.69C163.14,219.55,165.36,211.67,165.89,203.19z"/>
						</g>
						<g>
							<path style="fill:#221830;" d="M163.5,219.88c-27.97-0.55-53.53,4.44-90.81-1.7c-7.87-7.05-14.41-18.93-15.4-29.42
								c-1-10.49,2.11-21.31,8.53-29.69c-2.57-0.94-5.57-0.59-7.87,0.89c2.3-5.08,5.86-9.52,10.34-13.07
								c6.77-5.37,15.63-8.66,25.37-8.94c11.69-10.71,29.39-14.41,44.43-9.3c-2.14,1.44-4.28,2.88-6.42,4.31
								c18.53-0.87,37.07,10.41,44.76,27.23c-2.54-0.1-5.08-0.21-7.61-0.32c3.92,7,6.13,14.19,6.77,21.38
								C176.77,194.63,172.48,207.97,163.5,219.88z"/>
							<path style="fill:#3F2D52;" d="M175.58,181.25c-3.58-10.98-11.06-20.73-21.02-26.66c2.03-0.6,4.05-1.21,6.06-1.8
								c-11.53-12.2-29.13-18.09-46.05-16.27c1.87,0.44,3.57,1.55,4.68,3.1c-9.16-2.29-19.37,0.07-26.6,6.13
								c-7.59-2.93-16.57-2.34-24.37,1.15c6.77-5.37,15.63-8.66,25.37-8.94c11.69-10.71,29.39-14.41,44.43-9.3
								c-2.14,1.44-4.28,2.88-6.42,4.31c18.53-0.87,37.07,10.41,44.76,27.23c-2.54-0.1-5.08-0.21-7.61-0.32
								C172.73,166.87,174.94,174.06,175.58,181.25z"/>
						</g>
						<g>
							<path style="fill:#FAB792;" d="M166.23,224.12c-1.68,6.86-5.72,12.92-11.51,16.88c-5.12,3.51-10.95,6.45-17.82,8.75
								c-7.25,2.44-14.95,3.1-22.51,2.13c-4.32-0.55-8.63-1.32-12.93-2.33c-13.67-3.17-24.43-13.8-27.87-27.56
								c-1.51-6.04-2.61-12.22-3.24-18.5c0-0.01,0-0.01,0-0.01c-0.38-3.77-0.58-7.59-0.62-11.43c4.31-8.45,7.63-17.41,10.26-26.96
								v13.22c6.49-6.86,11.65-14.99,17.63-23.29c2.99,10.76,12.2,19.48,23,21.79l0.61-9.32c7.98,8.11,17.78,10.57,29.05,11.71
								l0.68-6.59c2.68,3.5,7.05,8.94,12.21,11.4c0.78,0.36,1.58,0.67,2.39,0.88C169.33,197.63,169.31,211.5,166.23,224.12z"/>
							<path style="fill:#EB947A;" d="M152.72,179.56c0.41,1.54,0.83,3.08,1.24,4.62c-10.45-0.49-20.77-3.54-29.8-8.81
								c0.79,1.98,1.57,3.96,2.35,5.94c-11.61,0.15-23.13-5.84-29.65-15.4c-4.22,7.49-10.57,13.78-18.11,17.96
								c-0.04-1.57-0.08-3.14-0.12-4.71c-1.29,4.6-3.87,8.83-7.51,12.13c-0.25,4.06-0.52,8.12-0.78,12.19
								c-0.38-3.77-0.58-7.59-0.62-11.43c4.31-8.45,7.63-17.41,10.26-26.96v13.22c6.49-6.86,11.65-14.99,17.63-23.29
								c2.99,10.76,12.2,19.48,23,21.79l0.61-9.32c7.98,8.11,17.78,10.57,29.05,11.71l0.68-6.59c2.68,3.5,7.05,8.94,12.21,11.4
								C159.34,183.61,155.63,182.06,152.72,179.56z"/>
						</g>
						<g>
							<g>
								<path style="fill:#221830;" d="M147.74,183.85c-1.68-0.72-3.23-1.26-4.79-1.61c-1.56-0.36-3.11-0.54-4.67-0.57
									s-3.12,0.09-4.69,0.38c-1.58,0.29-3.14,0.75-4.86,1.4c0.9-1.61,2.42-2.84,4.11-3.64c1.7-0.8,3.61-1.18,5.5-1.14
									c1.89,0.04,3.78,0.5,5.44,1.37C145.44,180.92,146.9,182.2,147.74,183.85z"/>
							</g>
							<g>
								<path style="fill:#221830;" d="M82.75,191.91c0.49-1.78,1.67-3.33,3.12-4.51c1.46-1.18,3.22-2.01,5.06-2.42
									c1.84-0.42,3.79-0.42,5.61,0.03c1.82,0.45,3.54,1.36,4.75,2.75c-1.81-0.3-3.43-0.44-5.04-0.41
									c-1.6,0.03-3.15,0.22-4.67,0.55c-1.52,0.34-3.01,0.83-4.46,1.48C85.66,190.04,84.26,190.87,82.75,191.91z"/>
							</g>
							<path style="fill:#262A3D;" d="M133.43,203.611c1.452-0.183,2.862,1.512,3.149,3.785c0.287,2.274-0.658,4.266-2.109,4.449
								c-1.452,0.183-2.862-1.512-3.149-3.785C131.033,205.786,131.978,203.794,133.43,203.611z"/>
							<path style="fill:#262A3D;" d="M101.373,209.085c1.421-0.351,3.02,1.172,3.571,3.402c0.552,2.23-0.153,4.323-1.574,4.674
								c-1.421,0.351-3.02-1.172-3.571-3.402C99.248,211.529,99.952,209.436,101.373,209.085z"/>
							<g style="opacity:0.4784;">
								<path style="fill:#EB6E6C;" d="M144.097,207.423c5.197-1.179,10.147,1.114,11.056,5.121c0.909,4.007-2.568,8.211-7.765,9.39
									c-5.197,1.179-10.148-1.114-11.056-5.121C135.423,212.806,138.899,208.601,144.097,207.423z"/>
								<ellipse style="fill:#EB6E6C;" cx="93.16" cy="222.83" rx="9.66" ry="7.43"/>
							</g>
							<path style="fill:#BF4D49;" d="M118.2,214.74c0.3,1.82,0.59,3.63,0.89,5.45c-1.16-0.22-2.14-1.19-2.36-2.34
								C116.5,216.7,117.04,215.44,118.2,214.74z"/>
							<path style="fill:#822339;" d="M124.81,240.19c9.59-1.21,9.39-12.93,6.2-17.65c-5.86,2.88-12.26,4.02-18.74,3.09
								C110.27,234.43,115.15,241.41,124.81,240.19z"/>
						</g>
					</g>
				</g>
			</g>
			<g>
				<g>
					<ellipse style="fill:#FFFFFF;" cx="163.249" cy="78.037" rx="61.179" ry="45.48"/>
					<polygon style="fill:#FFFFFF;" points="170.919,119.131 153.861,144.29 156.805,108.503 					"/>
				</g>
				
					<text transform="matrix(1 0 0 1 130.8015 71.4355)" style="fill:#403C7D; font-family:'FredokaOne-Regular'; font-size:20.1523px;">Salam</text>
				
					<text transform="matrix(1 0 0 1 124.1805 97.6337)" style="fill:#403C7D; font-family:'FredokaOne-Regular'; font-size:20.1523px;">Alaikum</text>
			</g>
		</g>
	</g>
</g>
</svg>
