<?xml version="1.0" encoding="utf-8"?>
<!-- Generator: Adobe Illustrator 27.5.0, SVG Export Plug-In . SVG Version: 6.00 Build 0)  -->
<svg version="1.1" id="Capa_1" xmlns="http://www.w3.org/2000/svg" xmlns:xlink="http://www.w3.org/1999/xlink" x="0px" y="0px"
	 viewBox="0 0 424.53 425.197" style="enable-background:new 0 0 424.53 425.197;" xml:space="preserve">
<g>
	<rect y="0" style="fill:#017CA8;" width="424.53" height="425.197"/>
	<g>
		<g>
			<path style="fill:#FDFDFD;stroke:#FDFDFD;stroke-width:1.1104;stroke-miterlimit:10;" d="M46.043,68.108
				c-1.831-0.31-3.104,0.931-3.816,3.723c-0.59,2.266-0.729,4.546-0.419,6.842c0.093,0.807,0.698,1.614,1.814,2.42
				c0.094,0.063,0.311,0.233,0.652,0.512l0.838,0.559c0.185,0.155,0.41,0.357,0.674,0.605c0.264,0.249,0.474,0.482,0.629,0.698
				c0.992,1.428,1.613,3.786,1.861,7.075c0.248,3.382-0.093,5.787-1.023,7.214c-0.466,0.745-1.35,1.226-2.653,1.442
				c-0.651,0.124-1.599,0.187-2.839,0.187c-0.311,0-0.465-0.155-0.465-0.466c0-0.31,0.154-0.465,0.465-0.465
				c1.21,0,2.109-0.046,2.699-0.14c1.024-0.186,1.706-0.527,2.048-1.024c0.775-1.271,1.055-3.506,0.838-6.702
				c-0.249-3.103-0.808-5.29-1.675-6.563c-0.156-0.217-0.342-0.426-0.559-0.628c-0.218-0.201-0.404-0.364-0.559-0.488
				c-0.156-0.124-0.404-0.31-0.745-0.559l-0.745-0.512c-1.303-0.961-2.032-1.985-2.187-3.072c-0.309-2.42-0.171-4.793,0.419-7.121
				c0.372-1.458,0.953-2.622,1.745-3.491c0.791-0.868,1.854-1.194,3.188-0.977c0.31,0.063,0.435,0.249,0.372,0.558
				C46.538,68.046,46.353,68.171,46.043,68.108z"/>
			<path style="fill:#FDFDFD;stroke:#FDFDFD;stroke-width:1.1104;stroke-miterlimit:10;" d="M57.397,98.919
				c0-0.682,0.109-1.613,0.326-2.793c0.248-1.271,0.388-2.156,0.419-2.653c0.187-2.295,0.403-4.576,0.651-6.841h-0.093
				c-0.311-0.031-0.45-0.202-0.419-0.512c0.031-0.31,0.201-0.449,0.512-0.418h0.094c0.465-3.878,1.039-7.772,1.722-11.682
				c0.093-0.403,0.294-1.815,0.604-4.235l0.279-2.048c0.031-0.279,0.063-0.496,0.094-0.651c0.03-0.093,0.062-0.17,0.093-0.233
				c0-0.03,0.016-0.062,0.047-0.093c0.062-0.123,0.155-0.202,0.279-0.233c0.31-0.124,0.604-0.046,0.884,0.233
				c0.155,0.186,0.295,0.45,0.419,0.791c0.217,0.528,0.403,1.288,0.559,2.281c0.155,1.055,0.309,2.513,0.466,4.375
				c0.093,1.18,0.31,2.94,0.651,5.283c0.341,2.343,0.559,4.119,0.651,5.329c0.031,0.279,0.047,0.574,0.047,0.884
				c0.03,0.031,0.047,0.078,0.047,0.14c0,0.063-0.017,0.124-0.047,0.186c0.093,1.582,0.14,5.988,0.14,13.218
				c0,0.31-0.155,0.465-0.466,0.465c-0.311,0-0.465-0.156-0.465-0.465c0-7.105-0.031-11.387-0.094-12.846
				c-2.39,0.218-4.08,0.311-5.072,0.279c-0.249,2.265-0.466,4.561-0.652,6.888c-0.031,0.497-0.171,1.412-0.418,2.746
				c-0.218,1.179-0.326,2.048-0.326,2.606c0,0.31-0.156,0.466-0.466,0.466C57.554,99.384,57.397,99.229,57.397,98.919z
				 M59.818,85.748c0.899,0.031,2.544-0.062,4.933-0.279c-0.031-0.186-0.046-0.372-0.046-0.559c-0.063-1.21-0.279-2.962-0.651-5.259
				c-0.342-2.389-0.559-4.172-0.652-5.352c-0.155-1.769-0.31-3.195-0.465-4.282c-0.156-0.961-0.311-1.675-0.466-2.141l-0.046-0.093
				v0.093l-0.279,2.001c-0.373,2.793-0.574,4.235-0.605,4.328C60.857,78.084,60.284,81.931,59.818,85.748z"/>
			<path style="fill:#FDFDFD;stroke:#FDFDFD;stroke-width:1.1104;stroke-miterlimit:10;" d="M75.921,66.665
				c0.31,0.807,0.543,1.684,0.698,2.63c0.155,0.947,0.294,2.125,0.419,3.537c0.123,1.412,0.217,2.304,0.279,2.676
				c0.154,1.334,0.512,3.397,1.07,6.19c0.496,2.669,0.838,4.748,1.023,6.237c0.094,0.745,0.202,1.769,0.326,3.072l0.232,2.513
				l0.094,0.884c0.062-0.279,0.108-0.589,0.14-0.931c0.526-3.102,0.806-4.948,0.837-5.538l0.279-4.375
				c0.155-2.017,0.279-3.63,0.373-4.84c0.093-1.21,0.248-2.668,0.465-4.375c0.217-1.706,0.466-3.242,0.745-4.607l0.279-0.977
				c0.093-0.434,0.17-0.821,0.232-1.163c0.062-0.341,0.108-0.667,0.14-0.978c0.03-0.31,0.201-0.449,0.512-0.419
				c0.311,0.031,0.449,0.202,0.419,0.512c-0.031,0.342-0.093,0.683-0.187,1.023c-0.063,0.373-0.146,0.776-0.256,1.21
				c-0.108,0.435-0.179,0.761-0.209,0.977c-0.279,1.366-0.528,2.886-0.744,4.561c-0.218,1.676-0.373,3.111-0.466,4.305
				c-0.093,1.195-0.218,2.801-0.372,4.817l-0.279,4.421c-0.031,0.187-0.311,2.048-0.838,5.585c-0.342,2.234-0.466,4.019-0.373,5.353
				v0.14c0,0.279-0.139,0.434-0.418,0.465c-0.31,0.03-0.481-0.109-0.512-0.419v-0.046c-0.279-1.458-0.544-3.289-0.792-5.492
				L78.807,91.1c-0.124-1.334-0.233-2.357-0.326-3.072c-0.124-1.24-0.465-3.304-1.023-6.19c-0.497-2.699-0.854-4.777-1.07-6.236
				c-0.063-0.465-0.156-1.365-0.279-2.699c-0.124-1.365-0.257-2.505-0.396-3.421c-0.14-0.915-0.35-1.761-0.629-2.537
				c-0.123-0.279-0.038-0.473,0.256-0.582C75.634,66.255,75.828,66.356,75.921,66.665z"/>
			<path style="fill:#FDFDFD;stroke:#FDFDFD;stroke-width:1.1104;stroke-miterlimit:10;" d="M94.165,66.712
				c0.619-0.403,1.303-0.527,2.047-0.373c0.248,0.063,0.605,0.171,1.07,0.326c0.466,0.156,0.807,0.264,1.024,0.326
				c0.31,0.093,0.426,0.288,0.349,0.582c-0.077,0.295-0.256,0.412-0.535,0.349c-0.279-0.062-0.667-0.187-1.163-0.373
				c-0.435-0.155-0.745-0.248-0.931-0.279c-0.559-0.123-1.04-0.015-1.443,0.326c-0.124,2.637-0.077,6.268,0.14,10.891l0.14,3.025
				c0.838,0.063,1.893,0.063,3.165,0c0.279,0,0.427,0.147,0.442,0.442c0.016,0.295-0.133,0.458-0.442,0.488
				c-1.241,0.063-2.28,0.063-3.118,0c0.123,2.979,0.186,5.43,0.186,7.354c0,0.342-0.108,1.847-0.325,4.515
				c-0.063,1.024-0.109,1.831-0.14,2.42c-0.031,0.651-0.016,1.133,0.047,1.442c0.093,0.063,0.217,0.109,0.372,0.14
				c0.372,0.063,0.868,0.093,1.489,0.093c0.434,0,0.992-0.015,1.676-0.046c0.682-0.031,1.07-0.047,1.163-0.047
				c0.31,0,0.466,0.156,0.466,0.466c0,0.31-0.156,0.465-0.466,0.465c-0.063,0-0.442,0.016-1.14,0.046
				c-0.698,0.031-1.266,0.046-1.699,0.046c-0.683,0-1.241-0.046-1.676-0.14c-0.248-0.03-0.465-0.093-0.651-0.186
				c-0.249-0.155-0.403-0.356-0.466-0.605c-0.062-0.31-0.076-0.868-0.046-1.675c0.031-0.621,0.077-1.458,0.14-2.513
				c0.217-2.637,0.326-4.111,0.326-4.422c0-1.892-0.125-5.646-0.373-11.263c-0.217-4.84-0.264-8.625-0.14-11.356
				c0-0.31,0.155-0.465,0.466-0.465H94.165z"/>
			<path style="fill:#FDFDFD;stroke:#FDFDFD;stroke-width:1.1104;stroke-miterlimit:10;" d="M123.298,67.085
				c0.373-0.186,1.07-0.31,2.095-0.372c0.838-0.062,1.861-0.077,3.071-0.047c2.451,0.031,4.22,0.156,5.307,0.373
				c0.309,0.063,0.434,0.248,0.372,0.559c-0.063,0.31-0.249,0.434-0.559,0.372c-0.869-0.186-2.358-0.309-4.468-0.372
				c0.062,1.024,0.1,2.11,0.116,3.258c0.015,1.148,0.007,2.475-0.023,3.979c-0.031,1.505-0.047,2.583-0.047,3.235
				c0,2.327-0.008,5.81-0.022,10.448c-0.017,4.639-0.023,8.122-0.023,10.449c0,0.311-0.156,0.465-0.466,0.465
				c-0.311,0-0.466-0.155-0.466-0.465c0-2.327,0.008-5.81,0.023-10.449c0.016-4.638,0.023-8.121,0.023-10.448
				c0-0.682,0.016-1.776,0.047-3.281c0.03-1.504,0.038-2.823,0.023-3.956c-0.017-1.132-0.07-2.211-0.163-3.234
				c-1.024-0.031-1.925-0.016-2.7,0.046c-0.899,0.063-1.488,0.156-1.768,0.279c-0.249,0.124-0.442,0.054-0.582-0.21
				C122.949,67.45,123.019,67.24,123.298,67.085z"/>
			<path style="fill:#FDFDFD;stroke:#FDFDFD;stroke-width:1.1104;stroke-miterlimit:10;" d="M149.268,67.178
				c-0.186,1.148-0.303,2.506-0.35,4.072c-0.047,1.567-0.055,2.855-0.023,3.863c0.031,1.009,0.094,2.553,0.187,4.631l0.232,3.956
				c0.124,0.093,0.187,0.217,0.187,0.373c0,0.155-0.047,0.279-0.14,0.372v0.559c0.03,0.962-0.017,3.304-0.14,7.028
				c-0.094,2.917-0.063,5.229,0.093,6.935c0.03,0.311-0.108,0.48-0.419,0.512c-0.311,0.031-0.481-0.109-0.512-0.419
				c-0.156-1.737-0.187-4.095-0.094-7.074c0.124-3.754,0.171-6.081,0.141-6.981v-0.465c-1.396-0.031-2.716-0.155-3.956-0.373
				c0,0.404-0.04,2.483-0.116,6.237c-0.078,3.754-0.117,6.608-0.117,8.563c0,0.311-0.155,0.465-0.465,0.465
				c-0.311,0-0.466-0.155-0.466-0.465c0-1.676,0.055-5.422,0.163-11.24c0.108-5.818,0.116-10.309,0.023-13.474
				c0-0.217,0.047-1.474,0.14-3.77c0.061-1.52,0.015-2.73-0.14-3.63c-0.063-0.31,0.062-0.496,0.372-0.558
				c0.31-0.062,0.496,0.063,0.559,0.372c0.186,0.962,0.232,2.25,0.14,3.863c-0.093,2.048-0.14,3.29-0.14,3.724
				c0.061,2.576,0.077,5.569,0.047,8.982c1.21,0.217,2.513,0.342,3.909,0.372c-0.031-0.403-0.102-1.699-0.209-3.886
				c-0.109-2.187-0.18-3.753-0.21-4.7c-0.031-0.946-0.023-2.226,0.023-3.84c0.046-1.613,0.163-3.009,0.349-4.189
				c0.063-0.279,0.24-0.396,0.535-0.349C149.167,66.689,149.299,66.868,149.268,67.178z"/>
			<path style="fill:#FDFDFD;stroke:#FDFDFD;stroke-width:1.1104;stroke-miterlimit:10;" d="M159.181,66.712
				c0.62-0.403,1.303-0.527,2.048-0.373c0.248,0.063,0.604,0.171,1.07,0.326c0.466,0.156,0.807,0.264,1.024,0.326
				c0.31,0.093,0.426,0.288,0.349,0.582c-0.078,0.295-0.256,0.412-0.535,0.349c-0.279-0.062-0.668-0.187-1.163-0.373
				c-0.436-0.155-0.745-0.248-0.932-0.279c-0.559-0.123-1.039-0.015-1.442,0.326c-0.124,2.637-0.078,6.268,0.14,10.891l0.14,3.025
				c0.838,0.063,1.892,0.063,3.165,0c0.279,0,0.426,0.147,0.441,0.442c0.016,0.295-0.132,0.458-0.441,0.488
				c-1.242,0.063-2.281,0.063-3.119,0c0.124,2.979,0.186,5.43,0.186,7.354c0,0.342-0.108,1.847-0.325,4.515
				c-0.063,1.024-0.109,1.831-0.141,2.42c-0.031,0.651-0.016,1.133,0.047,1.442c0.094,0.063,0.217,0.109,0.373,0.14
				c0.372,0.063,0.867,0.093,1.488,0.093c0.435,0,0.993-0.015,1.676-0.046c0.683-0.031,1.07-0.047,1.164-0.047
				c0.31,0,0.465,0.156,0.465,0.466c0,0.31-0.155,0.465-0.465,0.465c-0.063,0-0.442,0.016-1.141,0.046
				c-0.698,0.031-1.265,0.046-1.699,0.046c-0.683,0-1.241-0.046-1.675-0.14c-0.249-0.03-0.466-0.093-0.651-0.186
				c-0.249-0.155-0.404-0.356-0.466-0.605c-0.062-0.31-0.077-0.868-0.047-1.675c0.031-0.621,0.077-1.458,0.14-2.513
				c0.217-2.637,0.326-4.111,0.326-4.422c0-1.892-0.125-5.646-0.372-11.263c-0.217-4.84-0.264-8.625-0.14-11.356
				c0-0.31,0.154-0.465,0.465-0.465H159.181z"/>
		</g>
		<g>
			<path style="fill:#FDFDFD;stroke:#FDFDFD;stroke-width:1.1104;stroke-miterlimit:10;" d="M45.075,105.782
				c0.9,1.708,2.063,4.389,3.486,8.041c1.186,3.036,2.039,5.1,2.562,6.191c0.569-1.423,1.257-2.858,2.063-4.305
				c0.807-1.446,1.861-3.19,3.167-5.23c1.304-2.039,2.122-3.368,2.454-3.984c0.095-0.095,0.189-0.166,0.285-0.213
				c0.143-0.237,0.331-0.356,0.569-0.356c0.474,0,0.712,0.238,0.712,0.711c0,5.266,0.035,13.153,0.106,23.659
				c0.071,10.508,0.106,18.394,0.106,23.659c0,0.475-0.238,0.711-0.711,0.711c-0.476,0-0.712-0.237-0.712-0.711
				c0-5.218-0.036-12.831-0.106-22.841c-0.071-10.008-0.107-17.385-0.107-22.129l-1.28,2.063c-0.617,0.95-1.044,1.661-1.281,2.135
				l-1.21,1.921c-0.521,0.854-0.937,1.578-1.244,2.17c-0.31,0.594-0.63,1.27-0.961,2.028l-0.926,2.135
				c0,0.096-0.023,0.167-0.07,0.213c0.188,0.38,0.094,0.688-0.285,0.925c-0.427,0.238-0.76,0.142-0.996-0.285
				c-0.854-1.565-2.017-4.222-3.486-7.969c-0.902-2.324-1.59-4.032-2.063-5.123c0.046,10.294,0.284,21.347,0.712,33.159
				c0.046,0.712,0.035,2.704-0.036,5.977c-0.071,3.273,0.011,5.194,0.249,5.763c0.047,0.475-0.154,0.747-0.604,0.818
				c-0.452,0.071-0.724-0.106-0.818-0.534c-0.238-0.663-0.333-2.691-0.285-6.083c0.047-3.391,0.071-5.373,0.071-5.941
				c-0.474-12.808-0.711-24.762-0.711-35.862v-0.213c-0.095-0.332,0.023-0.593,0.356-0.783
				C44.506,105.261,44.837,105.355,45.075,105.782z"/>
			<path style="fill:#FDFDFD;stroke:#FDFDFD;stroke-width:1.1104;stroke-miterlimit:10;" d="M80.937,104.786
				c0.143-0.094,0.309-0.118,0.498-0.071c1.043,0.19,1.922,0.878,2.633,2.063c0.616,0.996,1.139,2.373,1.565,4.127
				c0.712,2.894,1.162,6.808,1.353,11.741c0.188,4.838,0.047,11.811-0.428,20.919c0,0.285-0.012,0.711-0.035,1.281
				c-0.024,0.569-0.035,0.996-0.035,1.281c-0.048,1.281-0.143,2.348-0.285,3.202c-0.38,2.846-1.352,4.554-2.917,5.123
				c-2.515,0.948-4.579,0.285-6.19-1.992c-1.187-1.708-1.875-3.747-2.064-6.12c-0.664-8.111-0.474-18.643,0.569-31.593
				c0.188-2.229,0.663-4.292,1.423-6.19c0.474-1.281,1.067-2.229,1.778-2.846C79.418,105.095,80.13,104.786,80.937,104.786z
				 M81.435,106.352c-0.617-0.189-1.186-0.046-1.707,0.427c-0.523,0.475-0.996,1.257-1.424,2.348
				c-0.711,1.755-1.139,3.677-1.28,5.763c-1.044,12.904-1.234,23.339-0.569,31.309c0.189,2.135,0.783,3.938,1.779,5.408
				c1.185,1.708,2.679,2.23,4.482,1.566c1.091-0.427,1.803-1.779,2.135-4.056c0.094-0.806,0.166-1.802,0.213-2.989
				c0-0.285,0.012-0.723,0.036-1.316c0.023-0.592,0.035-1.007,0.035-1.245c0.474-9.155,0.616-16.104,0.427-20.849
				c-0.189-4.838-0.617-8.656-1.28-11.456c-0.38-1.612-0.854-2.846-1.423-3.7c-0.333-0.569-0.712-0.972-1.139-1.21H81.435z"/>
			<path style="fill:#FDFDFD;stroke:#FDFDFD;stroke-width:1.1104;stroke-miterlimit:10;" d="M101.5,105.427
				c0.474,0,0.712,0.238,0.712,0.711c0,0.475,0.143,1.044,0.427,1.708c0.474,1.138,0.759,1.803,0.854,1.992
				c0.901,3.084,1.826,7.044,2.775,11.883c0.759,3.89,1.825,8.823,3.202,14.8c1.47,6.357,2.348,10.223,2.633,11.598
				c0-3.652-0.036-10.175-0.107-19.567c-0.07-9.393-0.106-16.65-0.106-21.773c0-0.474,0.237-0.712,0.712-0.712
				c0.474,0,0.711,0.238,0.711,0.712c0,5.265,0.036,13.152,0.107,23.659c0.07,10.507,0.106,18.393,0.106,23.659
				c0,0.475-0.237,0.712-0.712,0.712c-0.475,0-0.711-0.237-0.711-0.712v-0.427c-0.238-0.094-0.381-0.26-0.428-0.498
				c-0.807-4.079-1.921-9.155-3.344-15.227c-1.613-6.926-2.775-12.239-3.486-15.939c-0.808-4.127-1.542-7.375-2.206-9.748
				c0.047,0.238,0.071,0.475,0.071,0.711c0.143,3.321,0.201,8.195,0.178,14.623c-0.024,6.428,0.012,11.326,0.106,14.693
				c0.047,0.711,0.036,2.704-0.035,5.977c-0.071,3.273,0.011,5.194,0.249,5.764c0.047,0.475-0.154,0.747-0.605,0.818
				c-0.451,0.071-0.723-0.107-0.817-0.534c-0.238-0.664-0.333-2.692-0.285-6.084c0.047-3.391,0.071-5.372,0.071-5.941
				c-0.096-3.131-0.131-8.016-0.106-14.658c0.023-6.641-0.036-11.527-0.179-14.658c-0.047-0.569-0.142-1.637-0.284-3.202
				c-0.142-1.375-0.214-2.49-0.214-3.344v-0.071v-0.213C100.788,105.664,101.026,105.427,101.5,105.427z"/>
			<path style="fill:#FDFDFD;stroke:#FDFDFD;stroke-width:1.1104;stroke-miterlimit:10;" d="M128.325,104.929
				c0.949-0.616,1.992-0.806,3.131-0.569c0.379,0.096,0.926,0.261,1.637,0.498c0.712,0.238,1.233,0.404,1.566,0.498
				c0.474,0.143,0.651,0.439,0.534,0.89c-0.119,0.451-0.392,0.629-0.818,0.534c-0.428-0.095-1.021-0.285-1.779-0.569
				c-0.665-0.237-1.139-0.379-1.423-0.427c-0.854-0.189-1.59-0.023-2.206,0.499c-0.19,4.032-0.119,9.582,0.213,16.65l0.214,4.625
				c1.281,0.095,2.894,0.095,4.839,0c0.427,0,0.651,0.226,0.676,0.676c0.023,0.451-0.202,0.701-0.676,0.747
				c-1.898,0.096-3.486,0.096-4.768,0c0.189,4.554,0.285,8.302,0.285,11.243c0,0.522-0.167,2.823-0.498,6.902
				c-0.096,1.565-0.167,2.8-0.214,3.7c-0.048,0.996-0.024,1.732,0.071,2.206c0.143,0.095,0.331,0.167,0.569,0.213
				c0.569,0.096,1.327,0.142,2.276,0.142c0.664,0,1.518-0.023,2.561-0.071c1.043-0.046,1.637-0.071,1.779-0.071
				c0.474,0,0.712,0.238,0.712,0.711c0,0.475-0.238,0.711-0.712,0.711c-0.096,0-0.676,0.024-1.743,0.071
				c-1.067,0.047-1.934,0.071-2.598,0.071c-1.044,0-1.898-0.071-2.562-0.213c-0.38-0.047-0.712-0.143-0.996-0.285
				c-0.38-0.237-0.617-0.545-0.712-0.925c-0.094-0.474-0.117-1.327-0.07-2.562c0.047-0.948,0.117-2.229,0.213-3.842
				c0.332-4.031,0.498-6.285,0.498-6.76c0-2.893-0.189-8.633-0.569-17.22c-0.331-7.4-0.402-13.187-0.213-17.362
				c0-0.474,0.236-0.711,0.712-0.711H128.325z"/>
			<path style="fill:#FDFDFD;stroke:#FDFDFD;stroke-width:1.1104;stroke-miterlimit:10;" d="M162.621,105.355
				c0.095,0.522,0.106,1.341,0.036,2.455c-0.071,1.115-0.119,1.969-0.143,2.562c-0.024,0.594-0.131,1.458-0.32,2.597l-0.427,2.633
				c-0.096,0.569-0.262,1.4-0.498,2.49l-0.427,2.348c-0.381,1.898-0.688,4.721-0.926,8.467c-0.096,1.423-0.142,2.348-0.142,2.775
				c0.046,0.19,0.022,0.355-0.071,0.498c-0.143,2.088-0.332,3.914-0.569,5.479c-0.143,1.092-0.427,2.775-0.855,5.052
				c-0.427,2.419-0.771,4.519-1.031,6.297c-0.262,1.779-0.463,3.499-0.604,5.159c-0.048,0.475-0.31,0.687-0.783,0.641
				c-0.475-0.048-0.688-0.308-0.64-0.783c0.188-1.66,0.414-3.38,0.676-5.159c0.26-1.779,0.592-3.889,0.996-6.333
				c0.402-2.443,0.676-4.163,0.818-5.159c0.236-1.47,0.427-3.296,0.568-5.479c-0.711-1.944-1.471-4.72-2.276-8.325
				c-0.996-4.601-1.661-7.471-1.992-8.61c-0.19-0.758-0.712-2.3-1.565-4.625c-0.76-1.944-1.258-3.558-1.494-4.838
				c-0.095-0.474,0.096-0.758,0.568-0.854c0.475-0.095,0.759,0.096,0.855,0.569c0.237,1.186,0.712,2.728,1.423,4.625
				c0.854,2.372,1.398,3.938,1.637,4.696c0.331,1.186,0.972,4.104,1.921,8.752c0.427,1.946,0.83,3.558,1.21,4.838
				c0.236-3.32,0.521-5.977,0.854-7.969l0.428-2.348c0.236-1.091,0.402-1.921,0.498-2.49l0.427-2.562
				c0.188-1.091,0.296-1.921,0.32-2.491c0.022-0.569,0.071-1.387,0.142-2.455c0.071-1.067,0.059-1.838-0.035-2.313
				c-0.048-0.474,0.166-0.735,0.641-0.783C162.313,104.669,162.573,104.882,162.621,105.355z"/>
		</g>
	</g>
	<g>
		<g>
			<path style="fill:#D58461;" d="M171.552,300.31c13.199-1.359,48.187-12.223,51.821-15.951
				c4.138-4.244,21.195-21.508,24.249-26.631c3.053-5.122-7.674-9.361-15.063-5.643c-11.971,6.023-25.773,16.937-25.773,16.937
				l-30.805,2.158L171.552,300.31z"/>
			<path style="fill:#E69870;" d="M183.569,316.695c14.285-3.701,50.938-21.497,54.311-26.203
				c3.84-5.357,19.707-27.194,22.209-33.337c2.5-6.143-10.003-9.009-17.505-3.686c-12.155,8.626-25.507,22.933-25.507,22.933
				l-33.508,7.524V316.695z"/>
			<path style="fill:#F2AF8C;" d="M201.287,329.721c14.741-4.664,46.327-22.932,49.808-28.863
				c3.963-6.752,20.338-34.273,22.918-42.016c2.581-7.741-10.322-11.354-18.063-4.645c-12.544,10.871-26.322,28.902-26.322,28.902
				l-34.579,9.484L201.287,329.721z"/>
			<path style="fill:#F8B894;" d="M96.469,314.682c0,0,30.967-6.193,39.741-6.193c8.773,0,59.869,28.387,68.127,29.42
				c8.258,1.031,56.731-27.103,60.693-33.855c3.962-6.752,20.338-34.273,22.918-42.015c2.58-7.741-10.322-11.354-18.064-4.645
				c-12.543,10.871-26.322,28.903-26.322,28.903l-36.66,10.055l-11.854-26.505c0,0-22.71-9.355-35.613-9.872
				c-12.902-0.517-20.975,5.332-34.58,7.226c-13.605,1.895-31.998-6.709-31.998-6.709L96.469,314.682z"/>
			<path style="opacity:0.6;fill:#FFFFFF;" d="M275.921,283.578c-6.424,8.229-12.719,16.893-20.989,23.397
				c-15.28,12.016-35.229,19.033-54.624,18.646c-5.316-0.105-10.941,0.332-16.126-1.084c-4.34-1.187-8.33-3.09-12.384-5.01
				c-9.818-4.648-19.238-12.712-29.949-15.078c-12.223-2.699-22.998,0.821-31.824,7.674c9.481-1.705,21.289-3.635,26.186-3.635
				c8.773,0,59.869,28.387,68.127,29.42c8.258,1.031,56.731-27.103,60.693-33.855c3.138-5.346,14.053-23.709,19.745-34.969
				C281.419,273.568,279.263,279.295,275.921,283.578z"/>
			<path style="fill:#E6D2CE;" d="M138.664,268.578c11.3-5.053,15.767-4.535,27.698,0.506c6.313,2.668,16.984,9.541,22.931,12.917
				c3.86,2.192,8.994,5.813,13.78,5.79l-8.025-17.945c0,0-22.71-9.355-35.613-9.872c-12.902-0.517-20.975,5.332-34.58,7.226
				c-13.605,1.895-31.998-6.709-31.998-6.709l1.839,27.594C108.405,286.107,126.822,273.873,138.664,268.578z"/>
			<path style="fill:#F8B894;" d="M173.886,318.81c0,0,35.485-7.814,38.936-8.158c3.45-0.347,34.523-6.432,43.219-7.297
				c2.934-0.293,0.646-13.801-12.421-16.563c-14.106-2.979-40.309,0.192-42.378-0.497c-2.07-0.69-20.747-18.824-45.936-20.55"/>
			<path style="opacity:0.6;fill:#FFFFFF;" d="M239.075,300.011c-6.475,1.212-12.85,2.851-19.182,4.661
				c-5.244,1.498-10.438,3.563-15.832,4.475c-5.441,0.92-10.833,1.657-16.054,3.547c-4.152,1.502-8.065,3.432-11.833,5.615
				c7.896-1.73,33.729-7.365,36.646-7.656c3.45-0.347,34.523-6.432,43.219-7.297c1.002-0.1,1.381-1.75,0.945-3.977
				C251.927,297.188,243.392,299.202,239.075,300.011z"/>
			<path style="fill:#EDDFDE;" d="M171.804,275.774c9.119,7.554,18.803,17.126,31.486,17.183c12.988,0.059,25.146-5.738,38.309-3.52
				c4.203,0.709,9.371,1.987,13.107,4.627c-2.107-3.133-5.668-6.126-11.087-7.271c-14.106-2.979-40.309,0.192-42.378-0.497
				c-2.006-0.669-19.586-17.698-43.572-20.339C162.916,268.753,167.788,272.448,171.804,275.774z"/>
			<rect x="70.663" y="250.676" style="fill:#FFFFFF;" width="41.805" height="76.393"/>
			<rect x="70.663" y="250.676" style="fill:#DADADA;" width="41.805" height="35.805"/>
			<path style="fill:#FCC000;" d="M84.074,309.213c0-4.994,4.048-9.041,9.04-9.041c4.992,0,9.039,4.047,9.039,9.041
				c0,4.992-4.047,9.039-9.039,9.039C88.122,318.252,84.074,314.205,84.074,309.213z"/>
			<g>
				<path style="opacity:0.6;fill:#FFFFFF;" d="M86.559,304.563c3.038-2.559,7.741-1.971,10.507,1.311
					c2.766,3.284,2.545,8.019-0.492,10.577c-3.037,2.559-7.742,1.973-10.508-1.311S83.521,307.121,86.559,304.563z"/>
				<path style="opacity:0.6;fill:#FFFFFF;" d="M86.782,306.545c2.389-2.013,6.088-1.551,8.262,1.033
					c2.176,2.58,2.004,6.304-0.387,8.316c-2.389,2.012-6.089,1.55-8.264-1.031C84.22,312.28,84.392,308.557,86.782,306.545z"/>
				<path style="opacity:0.6;fill:#FFFFFF;" d="M86.687,308.549c1.814-1.527,4.625-1.178,6.275,0.782
					c1.651,1.96,1.52,4.788-0.295,6.317c-1.814,1.527-4.621,1.174-6.273-0.785C84.745,312.902,84.873,310.076,86.687,308.549z"/>
				<path style="opacity:0.6;fill:#FFFFFF;" d="M86.587,310.704c1.195-1.007,3.047-0.776,4.133,0.517
					c1.088,1.289,1.002,3.152-0.195,4.158c-1.193,1.007-3.044,0.775-4.131-0.516C85.308,313.57,85.394,311.709,86.587,310.704z"/>
			</g>
		</g>
		<rect y="250.676" style="fill:#20294F;" width="70.663" height="73.461"/>
	</g>
	<g>
		<g>
			<g>
				<rect x="122.778" y="173.936" style="fill:#7B930F;" width="144.539" height="76.738"/>
				<path style="fill:#ADCE6A;" d="M258.169,190.952c-5.631,0-10.346-4.619-10.514-10.216H141.219
					c0.003,0.101,0.009,0.202,0.009,0.303c0,5.394-4.232,9.942-9.504,10.468v41.225c5.621,0.055,10.302,4.703,10.414,10.313h105.512
					v-0.104c0-2.777,1.118-5.473,3.079-7.439c1.966-1.963,4.661-3.079,7.44-3.079c0.067,0,0.135,0.003,0.203,0.005v-41.48
					C258.304,190.947,258.236,190.952,258.169,190.952z"/>
				<path style="fill:#EDEDED;" d="M246.585,225.186c-4.463,1.907-8.948,3.708-13.657,4.93c-4.862,1.264-9.856,2.048-14.86,2.516
					c-8.645,0.806-17.698,0.223-26.121-1.904c-9.058-2.283-17.248-6.578-24.461-12.465c-3.09-2.52-5.91-5.375-8.402-8.492
					c-2.68-3.344-5.266-6.768-7.137-10.642c-1.846-3.814-3.424-7.798-4.367-11.937c-0.486-2.137-0.82-4.291-1.099-6.456h-5.262
					c0.003,0.101,0.009,0.202,0.009,0.303c0,5.394-4.232,9.942-9.504,10.468v41.225c5.621,0.055,10.302,4.703,10.414,10.313h105.512
					v-0.104c0-2.777,1.118-5.473,3.079-7.439c1.966-1.963,4.661-3.079,7.44-3.079c0.067,0,0.135,0.003,0.203,0.005v-13.18
					C254.548,221.456,250.606,223.466,246.585,225.186z"/>
				<g>
					<path style="fill:#697B44;" d="M252.162,245.79H138.21l-0.013-0.6c-0.113-5.688-4.833-10.367-10.521-10.424l-0.604-0.006
						v-45.202l0.55-0.052c5.386-0.541,9.604-5.186,9.604-10.582c0-0.07-0.002-0.141-0.004-0.209l-0.022-0.726h114.953l0.017,0.595
						c0.171,5.69,4.938,10.322,10.625,10.322c0.035,0,0.072-0.004,0.109-0.004l0.716-0.018v45.57l-0.718-0.018
						c-0.036,0-0.072,0-0.107,0c-2.799,0-5.539,1.137-7.519,3.113c-1.979,1.979-3.113,4.719-3.113,7.518V245.79z M139.389,244.569
						h111.564c0.126-2.942,1.372-5.789,3.46-7.877c2.111-2.114,5.005-3.367,7.986-3.468v-43.105
						c-5.968-0.202-10.937-4.968-11.416-10.905H138.442c-0.143,5.707-4.508,10.604-10.15,11.437v42.917
						C134.161,233.934,138.972,238.7,139.389,244.569z"/>
				</g>
				<path style="fill:#61750B;" d="M195.048,181.702c-16.673,0-30.188,13.516-30.188,30.189c0,16.67,13.515,30.186,30.188,30.186
					c16.672,0,30.188-13.516,30.188-30.186C225.235,195.218,211.72,181.702,195.048,181.702z M195.048,236.944
					c-13.836,0-25.054-11.219-25.054-25.053c0-13.836,11.218-25.054,25.054-25.054c13.837,0,25.053,11.218,25.053,25.054
					C220.101,225.726,208.885,236.944,195.048,236.944z"/>
				<g>
					<path style="fill:#697B44;" d="M206.508,212.804c-0.542-1.234-1.325-2.313-2.311-3.188c-0.926-0.848-1.99-1.502-3.164-1.948
						c-0.852-0.325-1.946-0.681-3.261-1.06v-5.287c0.323,0.391,0.554,0.864,0.705,1.436c0.563,2.055,1.956,3.186,3.927,3.186
						c1.069,0,2.032-0.398,2.785-1.147c0.752-0.754,1.147-1.701,1.147-2.744c0-0.813-0.211-1.69-0.628-2.612
						c-0.394-0.865-0.953-1.715-1.646-2.502c-0.922-1.082-2.021-1.902-3.268-2.439c-0.883-0.381-1.895-0.667-3.022-0.86v-1.09
						c0-2.236-1.374-3.038-2.661-3.038c-1.276,0-2.643,0.813-2.643,3.08v1.035c-2.607,0.408-4.693,1.383-6.209,2.908
						c-1.771,1.775-2.668,4.069-2.668,6.811c0,2.094,0.467,3.855,1.391,5.238c0.902,1.355,2.098,2.414,3.548,3.146
						c1.095,0.554,2.416,1.067,3.938,1.533v6.581c-0.01-0.008-0.02-0.018-0.029-0.027c-0.42-0.374-0.736-0.782-0.937-1.218
						c-0.256-0.557-0.566-1.387-0.921-2.461c-0.258-0.819-0.734-1.467-1.415-1.93c-0.654-0.441-1.436-0.667-2.329-0.667
						c-1.129,0-2.132,0.416-2.899,1.207c-0.759,0.774-1.159,1.72-1.159,2.728c0,1.075,0.23,2.174,0.685,3.27
						c0.448,1.08,1.142,2.127,2.061,3.107c0.923,0.988,2.078,1.815,3.438,2.467c1.037,0.502,2.213,0.867,3.506,1.102v4.477
						c0,0.912,0.172,1.615,0.523,2.147c0.261,0.393,0.884,1.057,2.161,1.057c1.527,0,2.098-0.959,2.274-1.37
						c0.237-0.554,0.346-1.292,0.346-2.314v-4.016c1.688-0.271,3.199-0.808,4.508-1.599c1.644-0.999,2.91-2.308,3.765-3.895
						c0.846-1.572,1.273-3.279,1.273-5.079C207.317,215.385,207.046,214.029,206.508,212.804z M191.417,202.821
						c0-1.125,0.394-1.471,0.521-1.584c0.156-0.134,0.332-0.26,0.529-0.383v3.905c-0.22-0.138-0.407-0.278-0.563-0.425
						C191.782,204.224,191.417,203.887,191.417,202.821z M199.514,217.515c0,0.795-0.263,1.471-0.806,2.07
						c-0.26,0.289-0.568,0.53-0.936,0.73v-5.32c0.433,0.224,0.79,0.458,1.072,0.708C199.132,215.96,199.514,216.428,199.514,217.515
						z"/>
					<g>
						<g>
							<path style="fill:#A7CC72;" d="M196.741,192.547v2.25c1.486,0.156,2.764,0.458,3.825,0.92
								c1.061,0.456,1.991,1.153,2.782,2.083c0.625,0.71,1.107,1.438,1.447,2.188c0.34,0.752,0.512,1.438,0.512,2.063
								c0,0.695-0.255,1.298-0.762,1.802c-0.508,0.508-1.121,0.762-1.844,0.762c-1.361,0-2.243-0.736-2.646-2.207
								c-0.458-1.736-1.564-2.892-3.314-3.462v8.669c1.725,0.475,3.094,0.905,4.115,1.293c1.021,0.391,1.936,0.951,2.74,1.688
								c0.862,0.766,1.525,1.682,1.992,2.74c0.466,1.064,0.698,2.229,0.698,3.491c0,1.586-0.373,3.067-1.115,4.45
								c-0.744,1.383-1.838,2.511-3.282,3.389c-1.445,0.873-3.16,1.395-5.148,1.562v5.188c0,0.82-0.08,1.418-0.238,1.795
								c-0.16,0.371-0.512,0.56-1.053,0.56c-0.501,0-0.853-0.152-1.053-0.459c-0.202-0.305-0.301-0.777-0.301-1.416v-5.627
								c-1.629-0.18-3.048-0.563-4.264-1.146c-1.216-0.587-2.23-1.312-3.043-2.179c-0.813-0.869-1.412-1.771-1.803-2.711
								c-0.389-0.938-0.582-1.855-0.582-2.76c0-0.667,0.258-1.271,0.779-1.803c0.521-0.536,1.172-0.803,1.949-0.803
								c0.625,0,1.153,0.145,1.584,0.438c0.432,0.293,0.73,0.701,0.898,1.23c0.374,1.14,0.701,2.012,0.977,2.616
								c0.279,0.603,0.7,1.155,1.262,1.657c0.563,0.499,1.309,0.882,2.242,1.146v-9.69c-1.862-0.515-3.42-1.086-4.671-1.72
								c-1.249-0.631-2.265-1.531-3.042-2.697c-0.778-1.17-1.166-2.67-1.166-4.504c0-2.387,0.76-4.348,2.279-5.878
								c1.525-1.527,3.722-2.414,6.6-2.668v-2.208c0-1.164,0.436-1.75,1.312-1.75C196.298,190.839,196.741,191.409,196.741,192.547z
								 M194.097,206.846v-7.983c-1.168,0.347-2.078,0.808-2.732,1.377c-0.653,0.568-0.979,1.43-0.979,2.582
								c0,1.098,0.306,1.929,0.917,2.49C191.915,205.876,192.845,206.388,194.097,206.846z M196.741,213.035v9.128
								c1.403-0.277,2.486-0.84,3.25-1.689c0.766-0.845,1.146-1.834,1.146-2.959c0-1.207-0.369-2.143-1.113-2.803
								C199.28,214.054,198.186,213.493,196.741,213.035z"/>
						</g>
					</g>
				</g>
				<g>
					<path style="fill:#697B44;" d="M260.169,176.407c-2.956,0-5.353,2.396-5.353,5.352c0,2.957,2.396,5.352,5.353,5.352
						c2.954,0,5.35-2.395,5.35-5.352C265.518,178.803,263.123,176.407,260.169,176.407z M260.169,186.198
						c-2.455,0-4.442-1.987-4.442-4.439c0-2.452,1.987-4.439,4.442-4.439c2.451,0,4.439,1.987,4.439,4.439
						C264.608,184.211,262.62,186.198,260.169,186.198z"/>
					<g>
						<path style="fill:#697B44;" d="M262.198,181.919c-0.095-0.217-0.233-0.408-0.408-0.563c-0.164-0.149-0.354-0.265-0.563-0.346
							c-0.15-0.056-0.344-0.12-0.576-0.187v-0.936c0.055,0.067,0.098,0.149,0.123,0.254c0.1,0.365,0.347,0.566,0.698,0.566
							c0.189,0,0.36-0.072,0.492-0.205c0.134-0.132,0.204-0.301,0.204-0.484c0-0.145-0.037-0.302-0.112-0.465
							c-0.069-0.154-0.168-0.304-0.291-0.443c-0.163-0.191-0.358-0.336-0.579-0.432c-0.156-0.067-0.336-0.119-0.535-0.15v-0.195
							c0-0.398-0.245-0.54-0.473-0.54c-0.227,0-0.469,0.144-0.469,0.548v0.184c-0.464,0.072-0.832,0.243-1.102,0.515
							c-0.313,0.314-0.472,0.723-0.472,1.208c0,0.371,0.085,0.682,0.248,0.928c0.157,0.24,0.37,0.426,0.628,0.559
							c0.195,0.098,0.428,0.188,0.697,0.27v1.168c-0.002,0-0.004-0.005-0.006-0.005c-0.074-0.066-0.129-0.138-0.166-0.216
							c-0.043-0.098-0.099-0.246-0.162-0.438c-0.045-0.143-0.131-0.258-0.252-0.341c-0.113-0.078-0.255-0.118-0.412-0.118
							c-0.199,0-0.377,0.072-0.514,0.214c-0.135,0.137-0.205,0.304-0.205,0.482c0,0.191,0.041,0.387,0.121,0.58
							c0.078,0.191,0.202,0.378,0.365,0.552c0.162,0.173,0.369,0.321,0.608,0.438c0.185,0.088,0.394,0.153,0.622,0.193v0.795
							c0,0.161,0.03,0.288,0.092,0.379c0.047,0.071,0.159,0.188,0.384,0.188c0.272,0,0.372-0.17,0.405-0.243
							c0.04-0.096,0.061-0.226,0.061-0.409v-0.713c0.297-0.046,0.566-0.142,0.797-0.281c0.292-0.176,0.52-0.408,0.67-0.691
							c0.148-0.277,0.224-0.58,0.224-0.898C262.342,182.378,262.294,182.14,262.198,181.919z M259.525,180.151
							c0-0.197,0.067-0.263,0.091-0.279c0.026-0.024,0.059-0.047,0.094-0.068v0.691c-0.039-0.023-0.072-0.048-0.1-0.074
							C259.589,180.399,259.525,180.341,259.525,180.151z M260.959,182.755c0,0.141-0.047,0.26-0.142,0.367
							c-0.046,0.053-0.104,0.096-0.166,0.13v-0.942c0.076,0.039,0.139,0.08,0.19,0.125
							C260.892,182.48,260.959,182.561,260.959,182.755z"/>
						<g>
							<g>
								<g>
									<g>
										<path style="fill:#A3BA68;" d="M260.468,178.331v0.4c0.263,0.025,0.49,0.08,0.677,0.161
											c0.19,0.079,0.354,0.203,0.495,0.37c0.109,0.122,0.197,0.254,0.258,0.387c0.061,0.135,0.09,0.254,0.09,0.367
											c0,0.12-0.046,0.229-0.136,0.316c-0.091,0.092-0.199,0.136-0.326,0.136c-0.241,0-0.399-0.13-0.471-0.392
											c-0.08-0.308-0.276-0.511-0.587-0.609v1.535c0.307,0.08,0.549,0.159,0.729,0.228c0.182,0.068,0.345,0.169,0.485,0.299
											c0.154,0.137,0.272,0.3,0.354,0.489c0.083,0.186,0.123,0.393,0.123,0.617c0,0.279-0.066,0.543-0.195,0.787
											c-0.134,0.245-0.327,0.446-0.583,0.6c-0.257,0.157-0.56,0.248-0.913,0.277v0.92c0,0.146-0.014,0.252-0.041,0.318
											c-0.03,0.064-0.092,0.101-0.188,0.101c-0.09,0-0.151-0.028-0.185-0.079c-0.037-0.057-0.055-0.141-0.055-0.254v-0.998
											c-0.289-0.032-0.541-0.098-0.754-0.201c-0.219-0.107-0.396-0.233-0.541-0.389c-0.145-0.152-0.252-0.313-0.318-0.48
											c-0.069-0.164-0.104-0.328-0.104-0.489c0-0.115,0.044-0.225,0.137-0.321c0.092-0.09,0.207-0.14,0.347-0.14
											c0.11,0,0.204,0.026,0.28,0.076c0.076,0.052,0.129,0.124,0.158,0.22c0.066,0.201,0.125,0.356,0.175,0.461
											c0.05,0.11,0.122,0.208,0.222,0.297c0.102,0.088,0.233,0.154,0.398,0.202v-1.716c-0.331-0.093-0.606-0.195-0.828-0.307
											c-0.221-0.113-0.402-0.269-0.539-0.478c-0.14-0.208-0.207-0.473-0.207-0.797c0-0.424,0.135-0.771,0.405-1.045
											c0.268-0.27,0.657-0.428,1.169-0.469v-0.393c0-0.207,0.076-0.31,0.232-0.31
											C260.391,178.029,260.468,178.129,260.468,178.331z M259.999,180.866v-1.416c-0.207,0.063-0.369,0.143-0.484,0.245
											c-0.115,0.101-0.174,0.252-0.174,0.456c0,0.195,0.055,0.342,0.164,0.441C259.611,180.694,259.777,180.782,259.999,180.866
											z M260.468,181.962v1.618c0.25-0.05,0.44-0.149,0.576-0.3c0.137-0.15,0.205-0.324,0.205-0.525
											c0-0.213-0.067-0.379-0.199-0.496C260.917,182.144,260.725,182.044,260.468,181.962z"/>
									</g>
								</g>
							</g>
						</g>
					</g>
				</g>
				<g>
					<path style="fill:#697B44;" d="M260.169,237.767c-2.956,0-5.353,2.393-5.353,5.351c0,2.956,2.396,5.352,5.353,5.352
						c2.954,0,5.35-2.396,5.35-5.352C265.518,240.159,263.123,237.767,260.169,237.767z M260.169,247.561
						c-2.455,0-4.442-1.992-4.442-4.444c0-2.454,1.987-4.44,4.442-4.44c2.451,0,4.439,1.986,4.439,4.44
						C264.608,245.569,262.62,247.561,260.169,247.561z"/>
					<g>
						<path style="fill:#697B44;" d="M262.198,243.276c-0.095-0.217-0.233-0.408-0.408-0.563c-0.164-0.15-0.354-0.265-0.563-0.344
							c-0.15-0.059-0.344-0.119-0.576-0.189v-0.936c0.055,0.068,0.098,0.152,0.123,0.252c0.1,0.365,0.347,0.567,0.698,0.567
							c0.189,0,0.36-0.071,0.492-0.204c0.134-0.134,0.204-0.303,0.204-0.486c0-0.143-0.037-0.303-0.112-0.461
							c-0.069-0.156-0.168-0.307-0.291-0.445c-0.163-0.191-0.358-0.338-0.579-0.434c-0.156-0.068-0.336-0.116-0.535-0.152v-0.195
							c0-0.396-0.245-0.537-0.473-0.537c-0.227,0-0.469,0.143-0.469,0.545v0.184c-0.464,0.074-0.832,0.248-1.102,0.516
							c-0.313,0.317-0.472,0.724-0.472,1.209c0,0.373,0.085,0.684,0.248,0.927c0.157,0.243,0.37,0.431,0.628,0.561
							c0.195,0.098,0.428,0.187,0.697,0.271v1.165c-0.002-0.002-0.004-0.002-0.006-0.005c-0.074-0.067-0.129-0.139-0.166-0.215
							c-0.043-0.1-0.099-0.245-0.162-0.436c-0.045-0.146-0.131-0.261-0.252-0.342c-0.113-0.08-0.255-0.119-0.412-0.119
							c-0.199,0-0.377,0.076-0.514,0.213c-0.135,0.141-0.205,0.308-0.205,0.484c0,0.191,0.041,0.387,0.121,0.58
							c0.078,0.191,0.202,0.379,0.365,0.55c0.162,0.177,0.369,0.321,0.608,0.437c0.185,0.092,0.394,0.156,0.622,0.195v0.795
							c0,0.164,0.03,0.287,0.092,0.381c0.047,0.07,0.159,0.189,0.384,0.189c0.272,0,0.372-0.172,0.405-0.244
							c0.04-0.1,0.061-0.23,0.061-0.408v-0.713c0.297-0.049,0.566-0.145,0.797-0.286c0.292-0.177,0.52-0.409,0.67-0.69
							c0.148-0.276,0.224-0.58,0.224-0.898C262.342,243.737,262.294,243.496,262.198,243.276z M259.525,241.509
							c0-0.2,0.067-0.259,0.091-0.278c0.026-0.024,0.059-0.047,0.094-0.069v0.693c-0.039-0.024-0.072-0.053-0.1-0.076
							C259.589,241.759,259.525,241.698,259.525,241.509z M260.959,244.115c0,0.142-0.047,0.261-0.142,0.368
							c-0.046,0.048-0.104,0.093-0.166,0.127v-0.942c0.076,0.039,0.139,0.08,0.19,0.126
							C260.892,243.839,260.959,243.922,260.959,244.115z"/>
						<g>
							<g>
								<g>
									<g>
										<path style="fill:#A3BA68;" d="M260.468,239.686v0.4c0.263,0.029,0.49,0.083,0.677,0.164
											c0.19,0.08,0.354,0.203,0.495,0.369c0.109,0.125,0.197,0.256,0.258,0.387c0.061,0.135,0.09,0.254,0.09,0.367
											c0,0.123-0.046,0.229-0.136,0.318c-0.091,0.09-0.199,0.138-0.326,0.138c-0.241,0-0.399-0.132-0.471-0.394
											c-0.08-0.31-0.276-0.513-0.587-0.613v1.537c0.307,0.082,0.549,0.16,0.729,0.229c0.182,0.066,0.345,0.17,0.485,0.299
											c0.154,0.135,0.272,0.299,0.354,0.486c0.083,0.188,0.123,0.393,0.123,0.619c0,0.281-0.066,0.544-0.195,0.789
											c-0.134,0.244-0.327,0.441-0.583,0.6c-0.257,0.154-0.56,0.248-0.913,0.277v0.922c0,0.143-0.014,0.25-0.041,0.316
											c-0.03,0.066-0.092,0.099-0.188,0.099c-0.09,0-0.151-0.028-0.185-0.08c-0.037-0.055-0.055-0.14-0.055-0.253v-0.996
											c-0.289-0.031-0.541-0.102-0.754-0.205c-0.219-0.102-0.396-0.232-0.541-0.385c-0.145-0.156-0.252-0.313-0.318-0.479
											c-0.069-0.169-0.104-0.33-0.104-0.491c0-0.117,0.044-0.223,0.137-0.318c0.092-0.096,0.207-0.14,0.347-0.14
											c0.11,0,0.204,0.024,0.28,0.075c0.076,0.051,0.129,0.123,0.158,0.218c0.066,0.202,0.125,0.354,0.175,0.466
											c0.05,0.105,0.122,0.201,0.222,0.288c0.102,0.091,0.233,0.159,0.398,0.206v-1.721c-0.331-0.088-0.606-0.19-0.828-0.303
											c-0.221-0.111-0.402-0.27-0.539-0.48c-0.14-0.203-0.207-0.471-0.207-0.795c0-0.422,0.135-0.771,0.405-1.041
											c0.268-0.271,0.657-0.431,1.169-0.475v-0.393c0-0.204,0.076-0.31,0.232-0.31
											C260.391,239.385,260.468,239.487,260.468,239.686z M259.999,242.224v-1.415c-0.207,0.062-0.369,0.142-0.484,0.245
											c-0.115,0.101-0.174,0.252-0.174,0.455c0,0.197,0.055,0.343,0.164,0.443C259.611,242.052,259.777,242.143,259.999,242.224
											z M260.468,243.317v1.619c0.25-0.048,0.44-0.147,0.576-0.297c0.137-0.15,0.205-0.326,0.205-0.524
											c0-0.215-0.067-0.38-0.199-0.499C260.917,243.501,260.725,243.401,260.468,243.317z"/>
									</g>
								</g>
							</g>
						</g>
					</g>
				</g>
				<g>
					<path style="fill:#697B44;" d="M130.032,237.839c-2.954,0-5.352,2.396-5.352,5.354c0,2.954,2.397,5.35,5.352,5.35
						c2.957,0,5.352-2.396,5.352-5.35C135.384,240.234,132.989,237.839,130.032,237.839z M130.032,247.633
						c-2.451,0-4.438-1.99-4.438-4.44c0-2.454,1.987-4.441,4.438-4.441c2.454,0,4.441,1.987,4.441,4.441
						C134.474,245.643,132.486,247.633,130.032,247.633z"/>
					<g>
						<path style="fill:#697B44;" d="M132.064,243.355c-0.096-0.223-0.233-0.414-0.407-0.566c-0.165-0.15-0.355-0.266-0.562-0.348
							c-0.15-0.055-0.345-0.119-0.578-0.186v-0.939c0.058,0.069,0.098,0.154,0.125,0.255c0.1,0.366,0.347,0.567,0.694,0.567
							c0.192,0,0.36-0.073,0.494-0.203c0.133-0.133,0.204-0.303,0.204-0.486c0-0.146-0.037-0.299-0.11-0.463
							c-0.07-0.154-0.171-0.307-0.294-0.445c-0.161-0.191-0.357-0.338-0.578-0.434c-0.156-0.064-0.336-0.117-0.535-0.149v-0.193
							c0-0.399-0.243-0.541-0.473-0.541c-0.227,0-0.468,0.143-0.468,0.546v0.184c-0.462,0.072-0.833,0.246-1.1,0.516
							c-0.314,0.314-0.474,0.724-0.474,1.209c0,0.371,0.083,0.684,0.247,0.927c0.16,0.239,0.37,0.428,0.627,0.56
							c0.196,0.096,0.431,0.188,0.7,0.272v1.165l-0.005-0.005c-0.074-0.067-0.131-0.14-0.166-0.218
							c-0.046-0.096-0.1-0.244-0.164-0.436c-0.045-0.145-0.13-0.26-0.25-0.342c-0.116-0.077-0.255-0.115-0.414-0.115
							c-0.199,0-0.377,0.072-0.514,0.211c-0.135,0.138-0.205,0.305-0.205,0.482c0,0.193,0.041,0.389,0.121,0.582
							c0.079,0.189,0.203,0.378,0.366,0.549c0.164,0.177,0.367,0.322,0.607,0.438c0.186,0.089,0.396,0.155,0.623,0.195v0.793
							c0,0.165,0.03,0.287,0.093,0.383c0.047,0.069,0.156,0.188,0.384,0.188c0.27,0,0.371-0.17,0.402-0.244
							c0.043-0.098,0.062-0.226,0.062-0.41v-0.711c0.298-0.048,0.567-0.143,0.799-0.285c0.291-0.177,0.516-0.408,0.668-0.691
							c0.149-0.277,0.224-0.581,0.224-0.898C132.207,243.81,132.161,243.567,132.064,243.355z M129.39,241.585
							c0-0.203,0.07-0.262,0.094-0.283c0.026-0.023,0.059-0.045,0.093-0.067v0.692c-0.038-0.025-0.071-0.049-0.1-0.075
							C129.455,241.831,129.39,241.773,129.39,241.585z M130.824,244.186c0,0.142-0.046,0.26-0.142,0.369
							c-0.045,0.053-0.1,0.092-0.166,0.129v-0.941c0.077,0.037,0.141,0.081,0.189,0.125
							C130.757,243.91,130.824,243.995,130.824,244.186z"/>
						<g>
							<g>
								<g>
									<g>
										<path style="fill:#A3BA68;" d="M130.333,239.764v0.395c0.265,0.029,0.49,0.082,0.678,0.163
											c0.189,0.081,0.354,0.206,0.495,0.37c0.11,0.125,0.195,0.254,0.255,0.389c0.061,0.134,0.09,0.254,0.09,0.367
											c0,0.122-0.045,0.229-0.134,0.318c-0.089,0.09-0.198,0.135-0.325,0.135c-0.243,0-0.398-0.129-0.47-0.393
											c-0.083-0.307-0.278-0.514-0.589-0.611v1.537c0.306,0.083,0.549,0.158,0.731,0.227c0.182,0.068,0.343,0.169,0.485,0.298
											c0.155,0.137,0.271,0.299,0.353,0.486c0.082,0.191,0.123,0.395,0.123,0.619c0,0.28-0.063,0.543-0.196,0.791
											c-0.132,0.242-0.325,0.443-0.583,0.6c-0.255,0.155-0.56,0.245-0.912,0.277v0.918c0,0.146-0.013,0.252-0.041,0.318
											c-0.029,0.068-0.093,0.1-0.188,0.1c-0.089,0-0.149-0.027-0.186-0.08c-0.037-0.057-0.055-0.139-0.055-0.254v-0.997
											c-0.288-0.032-0.539-0.098-0.754-0.202c-0.217-0.104-0.397-0.232-0.541-0.387c-0.144-0.154-0.25-0.314-0.318-0.48
											c-0.068-0.167-0.105-0.328-0.105-0.49c0-0.115,0.045-0.222,0.139-0.317c0.093-0.095,0.207-0.143,0.344-0.143
											c0.112,0,0.206,0.027,0.28,0.077c0.078,0.051,0.132,0.126,0.162,0.217c0.067,0.203,0.123,0.357,0.173,0.465
											c0.05,0.108,0.124,0.205,0.224,0.294c0.102,0.087,0.232,0.154,0.396,0.204v-1.721c-0.328-0.089-0.606-0.191-0.826-0.302
											c-0.223-0.112-0.403-0.274-0.54-0.479c-0.138-0.205-0.207-0.473-0.207-0.797c0-0.422,0.135-0.773,0.404-1.044
											c0.271-0.271,0.659-0.428,1.169-0.474v-0.391c0-0.205,0.078-0.309,0.232-0.309
											C130.255,239.46,130.333,239.56,130.333,239.764z M129.864,242.295v-1.415c-0.207,0.064-0.367,0.145-0.483,0.247
											c-0.116,0.101-0.173,0.253-0.173,0.458c0,0.193,0.053,0.342,0.161,0.44C129.477,242.123,129.642,242.217,129.864,242.295z
											 M130.333,243.392v1.62c0.25-0.049,0.441-0.149,0.576-0.3c0.136-0.146,0.204-0.324,0.204-0.525
											c0-0.213-0.065-0.377-0.199-0.496C130.784,243.572,130.591,243.472,130.333,243.392z"/>
									</g>
								</g>
							</g>
						</g>
					</g>
				</g>
				<g>
					<path style="fill:#697B44;" d="M130.087,176.351c-2.957,0-5.352,2.398-5.352,5.352c0,2.955,2.395,5.351,5.352,5.351
						c2.955,0,5.351-2.396,5.351-5.351C135.438,178.749,133.042,176.351,130.087,176.351z M130.087,186.143
						c-2.454,0-4.442-1.987-4.442-4.44c0-2.454,1.988-4.441,4.442-4.441c2.451,0,4.44,1.987,4.44,4.441
						C134.527,184.155,132.538,186.143,130.087,186.143z"/>
					<g>
						<path style="fill:#697B44;" d="M132.117,181.864c-0.095-0.221-0.233-0.411-0.409-0.566c-0.164-0.149-0.353-0.267-0.56-0.345
							c-0.151-0.06-0.347-0.125-0.579-0.189v-0.938c0.058,0.067,0.098,0.154,0.124,0.255c0.101,0.364,0.348,0.566,0.698,0.566
							c0.188,0,0.358-0.072,0.492-0.207c0.133-0.133,0.203-0.297,0.203-0.486c0-0.141-0.037-0.3-0.109-0.461
							c-0.071-0.156-0.172-0.304-0.295-0.445c-0.16-0.191-0.358-0.338-0.578-0.434c-0.156-0.065-0.335-0.115-0.535-0.15v-0.194
							c0-0.395-0.244-0.54-0.474-0.54c-0.225,0-0.467,0.146-0.467,0.547v0.184c-0.463,0.076-0.832,0.247-1.1,0.52
							c-0.315,0.313-0.474,0.721-0.474,1.203c0,0.371,0.082,0.686,0.247,0.928c0.16,0.243,0.371,0.432,0.627,0.561
							c0.194,0.099,0.43,0.191,0.699,0.27v1.17c0,0-0.003-0.005-0.005-0.006c-0.076-0.067-0.131-0.139-0.166-0.217
							c-0.047-0.098-0.1-0.246-0.164-0.438c-0.046-0.143-0.13-0.258-0.25-0.339c-0.117-0.08-0.255-0.119-0.415-0.119
							c-0.197,0-0.377,0.071-0.513,0.215c-0.135,0.138-0.204,0.302-0.204,0.482c0,0.191,0.039,0.385,0.12,0.579
							c0.08,0.194,0.203,0.377,0.366,0.551c0.163,0.174,0.367,0.324,0.609,0.438c0.184,0.087,0.392,0.153,0.621,0.193v0.796
							c0,0.161,0.03,0.284,0.093,0.38c0.046,0.069,0.156,0.186,0.383,0.186c0.27,0,0.373-0.17,0.402-0.243
							c0.043-0.098,0.063-0.228,0.063-0.409v-0.712c0.299-0.049,0.568-0.145,0.799-0.286c0.291-0.174,0.516-0.406,0.668-0.685
							c0.149-0.281,0.225-0.584,0.225-0.903C132.261,182.319,132.214,182.081,132.117,181.864z M129.44,180.095
							c0-0.201,0.071-0.26,0.096-0.279c0.026-0.024,0.059-0.049,0.093-0.071v0.692c-0.039-0.026-0.071-0.051-0.1-0.074
							C129.509,180.343,129.44,180.283,129.44,180.095z M130.878,182.699c0,0.142-0.047,0.261-0.143,0.366
							c-0.047,0.05-0.102,0.094-0.166,0.13v-0.942c0.076,0.037,0.141,0.08,0.189,0.125
							C130.809,182.427,130.878,182.505,130.878,182.699z"/>
						<g>
							<g>
								<g>
									<g>
										<path style="fill:#A3BA68;" d="M130.387,178.271v0.401c0.265,0.025,0.489,0.078,0.679,0.161
											c0.187,0.083,0.352,0.204,0.492,0.372c0.112,0.125,0.195,0.252,0.258,0.385c0.059,0.133,0.09,0.257,0.09,0.365
											c0,0.124-0.045,0.229-0.136,0.322c-0.089,0.091-0.198,0.132-0.328,0.132c-0.24,0-0.396-0.13-0.466-0.39
											c-0.083-0.308-0.277-0.512-0.589-0.613v1.536c0.304,0.085,0.548,0.159,0.73,0.229c0.18,0.069,0.343,0.168,0.486,0.3
											c0.151,0.137,0.27,0.296,0.352,0.487c0.081,0.184,0.122,0.395,0.122,0.616c0,0.282-0.064,0.546-0.198,0.788
											c-0.13,0.246-0.324,0.443-0.581,0.6c-0.255,0.154-0.561,0.248-0.912,0.279v0.92c0,0.145-0.015,0.25-0.042,0.318
											c-0.029,0.064-0.091,0.098-0.189,0.098c-0.086,0-0.149-0.026-0.184-0.08c-0.035-0.054-0.055-0.14-0.055-0.25v-0.998
											c-0.288-0.032-0.539-0.101-0.755-0.206c-0.215-0.103-0.396-0.231-0.539-0.382c-0.143-0.157-0.251-0.318-0.32-0.48
											c-0.069-0.17-0.105-0.332-0.105-0.491c0-0.12,0.047-0.226,0.141-0.319c0.09-0.095,0.208-0.141,0.345-0.141
											c0.11,0,0.202,0.025,0.28,0.078c0.077,0.049,0.131,0.121,0.158,0.215c0.067,0.204,0.126,0.358,0.174,0.463
											c0.05,0.108,0.126,0.208,0.223,0.293c0.103,0.089,0.233,0.158,0.399,0.206v-1.718c-0.328-0.092-0.606-0.193-0.826-0.306
											c-0.223-0.114-0.402-0.273-0.541-0.48c-0.138-0.206-0.207-0.473-0.207-0.799c0-0.422,0.137-0.768,0.405-1.041
											c0.27-0.27,0.66-0.428,1.169-0.471v-0.395c0-0.205,0.078-0.311,0.232-0.311
											C130.308,177.968,130.387,178.07,130.387,178.271z M129.917,180.806v-1.414c-0.207,0.063-0.369,0.143-0.483,0.245
											c-0.116,0.099-0.175,0.252-0.175,0.458c0,0.193,0.057,0.342,0.163,0.441C129.531,180.636,129.696,180.727,129.917,180.806
											z M130.387,181.905v1.617c0.249-0.048,0.442-0.149,0.577-0.298c0.134-0.151,0.201-0.329,0.201-0.525
											c0-0.216-0.064-0.38-0.197-0.499C130.838,182.085,130.642,181.986,130.387,181.905z"/>
									</g>
								</g>
							</g>
						</g>
					</g>
				</g>
			</g>
			<path style="fill:#F8B894;" d="M307.015,116.585c0,0-10.342,9.728-18.779,10.929c-4.883,0.696-59.813,4.267-66.111,7.178
				c-4.104,1.897-14.498,24.039-21.246,39.245h28.75c3.471-3.493,7.093-5.865,8.602-6.347c9.406-2.999,27.278-1.692,26.115,6.49
				c-1.164,8.182-25.641,26.241-39.66,36.769c-14.02,10.527-4.973,28.276,6.09,21.901c11.707-6.746,26.072-10.689,29.805-13.313
				c3.732-2.625,21.404-7.197,36.735-18.779c13.51-10.207,13.019-13.662,18.66-18.969c2.558-2.406,18.44-5.826,18.44-5.826
				L307.015,116.585z"/>
			<path style="fill:#EDDFDE;" d="M254.134,160.385c-12.066-1.981-25.506,4.147-34.232,13.552h9.727
				c3.471-3.493,7.093-5.865,8.602-6.347c9.406-2.999,27.278-1.692,26.115,6.49c-0.285,2.008-1.98,4.611-4.574,7.551
				c2.052-1.17,3.947-2.484,5.57-3.943C274.988,169.015,262.13,161.696,254.134,160.385z"/>
			<path style="opacity:0.6;fill:#FFFFFF;" d="M307.015,116.585c0,0-10.342,9.728-18.779,10.929
				c-4.883,0.696-59.813,4.267-66.111,7.178c-4.104,1.897-14.498,24.04-21.245,39.245h3.001c0.103-0.166,0.207-0.332,0.309-0.499
				c3.82-6.238,7.717-12.424,12.303-18.137c4.585-5.713,11.133-8.57,18.105-10.246c16.227-3.896,33.27-1.778,49.457-6.355
				c6.408-1.811,12.676-5.076,18.115-8.896c2.848-1.999,5.65-4.496,7.504-7.467L307.015,116.585z"/>
			<path style="opacity:0.6;fill:#FFFFFF;" d="M250.128,190.896c-1.015,7.307-4.997,14.156-10.553,19.166
				c-3.904,3.518-8.097,5.561-12.945,7.459c-3.116,1.221-6.322,2.473-8.982,4.508c0.479-3.787,2.596-7.846,7.037-11.181
				C231.93,205.408,241.959,197.957,250.128,190.896z"/>
			<path style="fill:#EDDFDE;" d="M221.755,227.128c9.655,2.015,19.542-2.503,27.557-7.497c9.93-6.186,18.797-13.945,27.217-22.023
				c9.422-9.039,18.066-19.021,29.154-26.105c5.912-3.777,12.444-6.098,18.379-9.75c0.835-0.514,1.904-1.18,2.924-1.963l7.43,16.074
				c0,0-15.883,3.42-18.44,5.826c-5.642,5.307-5.15,8.762-18.66,18.969c-15.331,11.582-33.003,16.154-36.735,18.779
				c-3.732,2.624-18.098,6.566-29.805,13.313c-6.362,3.666-12.048-0.65-13.072-6.98
				C218.972,226.356,220.315,226.828,221.755,227.128z"/>
			
				<rect x="307.993" y="100.975" transform="matrix(0.9077 -0.4196 0.4196 0.9077 -28.3564 150.8106)" style="fill:#DADADA;" width="41.36" height="77.79"/>
			
				<rect x="300.211" y="102.687" transform="matrix(0.9077 -0.4196 0.4196 0.9077 -22.0108 145.9915)" style="fill:#FFFFFF;" width="41.36" height="40.696"/>
		</g>
		<polygon style="fill:#B41F1C;" points="359.781,159.865 424.53,133.882 424.53,44.85 332.304,96.813 		"/>
	</g>
</g>
</svg>
